<svg xmlns="http://www.w3.org/2000/svg" viewBox="0 0 960 540" font-family="-apple-system,BlinkMacSystemFont,'PingFang SC','Hiragino Sans GB','Microsoft YaHei',Arial,sans-serif">
<defs>
<marker id="arrow-blue" markerWidth="10" markerHeight="10" refX="8" refY="5" orient="auto" markerUnits="strokeWidth"><path d="M0,0 L10,5 L0,10 z" fill="#2f6395"/></marker>
<marker id="arrow-gray" markerWidth="10" markerHeight="10" refX="8" refY="5" orient="auto" markerUnits="strokeWidth"><path d="M0,0 L10,5 L0,10 z" fill="#6b7280"/></marker>
<marker id="arrow-red" markerWidth="10" markerHeight="10" refX="8" refY="5" orient="auto" markerUnits="strokeWidth"><path d="M0,0 L10,5 L0,10 z" fill="#c65a5a"/></marker>
</defs>
<rect x="0" y="0" width="960" height="540" rx="8" fill="#ffffff" stroke="#d9e1ea" stroke-width="1.5"/>
<text x="38" y="46" font-size="25" fill="#333333" text-anchor="start" font-weight="700">流网络与 s-t 割</text>
<line x1="38" y1="65" x2="922" y2="65" stroke="#d9e1ea" stroke-width="2"/>
<rect x="48" y="92" width="864" height="388" rx="8" fill="#f7fafc" stroke="#d9e1ea" stroke-width="1.5"/>
<path d="M470,98 C420,175 515,248 455,326 C425,370 470,420 448,475" fill="none" stroke="#c65a5a" stroke-width="3" stroke-dasharray="10 8"/>
<text x="365" y="130" font-size="18" fill="#2f6395" text-anchor="middle" font-weight="700">S 集合</text>
<text x="605" y="130" font-size="18" fill="#d28a25" text-anchor="middle" font-weight="700">T 集合</text>
<line x1="125" y1="285" x2="290" y2="190" stroke="#2f6395" stroke-width="2.2" marker-end="url(#arrow-blue)"/>
<rect x="183.5" y="222.5" width="48" height="24" rx="6" fill="#ffffff" stroke="#d9e1ea" stroke-width="1"/>
<text x="207.5" y="240.5" font-size="12.5" fill="#333333" text-anchor="middle" font-weight="400">c=10</text>
<line x1="125" y1="285" x2="295" y2="382" stroke="#2f6395" stroke-width="2.2" marker-end="url(#arrow-blue)"/>
<rect x="186.0" y="318.5" width="48" height="24" rx="6" fill="#ffffff" stroke="#d9e1ea" stroke-width="1"/>
<text x="210.0" y="336.5" font-size="12.5" fill="#333333" text-anchor="middle" font-weight="400">c=8</text>
<line x1="330" y1="190" x2="295" y2="382" stroke="#6b7280" stroke-width="2.2" marker-end="url(#arrow-blue)"/>
<rect x="288.5" y="271.0" width="48" height="24" rx="6" fill="#ffffff" stroke="#d9e1ea" stroke-width="1"/>
<text x="312.5" y="289.0" font-size="12.5" fill="#333333" text-anchor="middle" font-weight="400">c=2</text>
<line x1="330" y1="190" x2="600" y2="190" stroke="#c65a5a" stroke-width="3" marker-end="url(#arrow-red)"/>
<rect x="441.0" y="175.0" width="48" height="24" rx="6" fill="#ffffff" stroke="#c65a5a" stroke-width="1"/>
<text x="465.0" y="193.0" font-size="12.5" fill="#333333" text-anchor="middle" font-weight="400">c=5</text>
<line x1="330" y1="190" x2="600" y2="382" stroke="#c65a5a" stroke-width="3" marker-end="url(#arrow-red)"/>
<rect x="441.0" y="271.0" width="48" height="24" rx="6" fill="#ffffff" stroke="#c65a5a" stroke-width="1"/>
<text x="465.0" y="289.0" font-size="12.5" fill="#333333" text-anchor="middle" font-weight="400">c=4</text>
<line x1="335" y1="382" x2="600" y2="382" stroke="#c65a5a" stroke-width="3" marker-end="url(#arrow-red)"/>
<rect x="443.5" y="367.0" width="48" height="24" rx="6" fill="#ffffff" stroke="#c65a5a" stroke-width="1"/>
<text x="467.5" y="385.0" font-size="12.5" fill="#333333" text-anchor="middle" font-weight="400">c=6</text>
<line x1="640" y1="190" x2="815" y2="285" stroke="#d28a25" stroke-width="2.2" marker-end="url(#arrow-blue)"/>
<rect x="703.5" y="222.5" width="48" height="24" rx="6" fill="#ffffff" stroke="#d9e1ea" stroke-width="1"/>
<text x="727.5" y="240.5" font-size="12.5" fill="#333333" text-anchor="middle" font-weight="400">c=7</text>
<line x1="640" y1="382" x2="815" y2="285" stroke="#d28a25" stroke-width="2.2" marker-end="url(#arrow-blue)"/>
<rect x="703.5" y="318.5" width="48" height="24" rx="6" fill="#ffffff" stroke="#d9e1ea" stroke-width="1"/>
<text x="727.5" y="336.5" font-size="12.5" fill="#333333" text-anchor="middle" font-weight="400">c=9</text>
<line x1="640" y1="190" x2="600" y2="382" stroke="#6b7280" stroke-width="2.2" marker-end="url(#arrow-blue)"/>
<rect x="596.0" y="271.0" width="48" height="24" rx="6" fill="#ffffff" stroke="#d9e1ea" stroke-width="1"/>
<text x="620.0" y="289.0" font-size="12.5" fill="#333333" text-anchor="middle" font-weight="400">c=3</text>
<circle cx="105" cy="285" r="25" fill="#ffffff" stroke="#2f6395" stroke-width="2.4"/>
<text x="105" y="291" font-size="15" fill="#333333" text-anchor="middle" font-weight="700">s</text>
<circle cx="310" cy="190" r="25" fill="#ffffff" stroke="#2f6395" stroke-width="2.4"/>
<text x="310" y="196" font-size="15" fill="#333333" text-anchor="middle" font-weight="700">u</text>
<circle cx="315" cy="382" r="25" fill="#ffffff" stroke="#2f6395" stroke-width="2.4"/>
<text x="315" y="388" font-size="15" fill="#333333" text-anchor="middle" font-weight="700">v</text>
<circle cx="620" cy="190" r="25" fill="#ffffff" stroke="#d28a25" stroke-width="2.4"/>
<text x="620" y="196" font-size="15" fill="#333333" text-anchor="middle" font-weight="700">x</text>
<circle cx="620" cy="382" r="25" fill="#ffffff" stroke="#d28a25" stroke-width="2.4"/>
<text x="620" y="388" font-size="15" fill="#333333" text-anchor="middle" font-weight="700">y</text>
<circle cx="835" cy="285" r="25" fill="#ffffff" stroke="#d28a25" stroke-width="2.4"/>
<text x="835" y="291" font-size="15" fill="#333333" text-anchor="middle" font-weight="700">t</text>
<rect x="520" y="430" width="310" height="48" rx="10" fill="#f7dddd" stroke="#c65a5a" stroke-width="1.5"/>
<text x="675" y="460" font-size="16" fill="#333333" text-anchor="middle" font-weight="700">割容量 = 5 + 4 + 6 = 15</text>
</svg>
