<svg xmlns="http://www.w3.org/2000/svg" viewBox="0 0 960 540" font-family="-apple-system,BlinkMacSystemFont,'PingFang SC','Hiragino Sans GB','Microsoft YaHei',Arial,sans-serif">
<defs>
<marker id="arrow-blue" markerWidth="10" markerHeight="10" refX="8" refY="5" orient="auto" markerUnits="strokeWidth"><path d="M0,0 L10,5 L0,10 z" fill="#2f6395"/></marker>
<marker id="arrow-gray" markerWidth="10" markerHeight="10" refX="8" refY="5" orient="auto" markerUnits="strokeWidth"><path d="M0,0 L10,5 L0,10 z" fill="#6b7280"/></marker>
<marker id="arrow-red" markerWidth="10" markerHeight="10" refX="8" refY="5" orient="auto" markerUnits="strokeWidth"><path d="M0,0 L10,5 L0,10 z" fill="#c65a5a"/></marker>
</defs>
<rect x="0" y="0" width="960" height="540" rx="8" fill="#ffffff" stroke="#d9e1ea" stroke-width="1.5"/>
<text x="38" y="46" font-size="25" fill="#333333" text-anchor="start" font-weight="700">NP 归约链：把一个难题翻译成另一个</text>
<line x1="38" y1="65" x2="922" y2="65" stroke="#d9e1ea" stroke-width="2"/>
<rect x="358" y="80" width="144" height="50" rx="10" fill="#ffffff" stroke="#2f6395" stroke-width="1.5"/>
<text x="430.0" y="110.0" font-size="15" fill="#333333" text-anchor="middle" font-weight="700">SAT</text>
<rect x="358" y="155" width="144" height="50" rx="10" fill="#ffffff" stroke="#2f6395" stroke-width="1.5"/>
<text x="430.0" y="185.0" font-size="15" fill="#333333" text-anchor="middle" font-weight="700">3SAT</text>
<rect x="163" y="245" width="144" height="50" rx="10" fill="#ffffff" stroke="#4f9d69" stroke-width="1.5"/>
<text x="235.0" y="275.0" font-size="15" fill="#333333" text-anchor="middle" font-weight="700">团 CLIQUE</text>
<rect x="358" y="245" width="144" height="50" rx="10" fill="#ffffff" stroke="#4f9d69" stroke-width="1.5"/>
<text x="430.0" y="275.0" font-size="15" fill="#333333" text-anchor="middle" font-weight="700">独立集 IS</text>
<rect x="553" y="245" width="144" height="50" rx="10" fill="#ffffff" stroke="#d28a25" stroke-width="1.5"/>
<text x="625.0" y="275.0" font-size="15" fill="#333333" text-anchor="middle" font-weight="700">顶点覆盖 VC</text>
<rect x="233" y="340" width="144" height="50" rx="10" fill="#ffffff" stroke="#4f9d69" stroke-width="1.5"/>
<text x="305.0" y="370.0" font-size="15" fill="#333333" text-anchor="middle" font-weight="700">哈密顿回路</text>
<rect x="483" y="340" width="144" height="50" rx="10" fill="#ffffff" stroke="#d28a25" stroke-width="1.5"/>
<text x="555.0" y="370.0" font-size="15" fill="#333333" text-anchor="middle" font-weight="700">图着色</text>
<rect x="233" y="430" width="144" height="50" rx="10" fill="#ffffff" stroke="#4f9d69" stroke-width="1.5"/>
<text x="305.0" y="460.0" font-size="15" fill="#333333" text-anchor="middle" font-weight="700">TSP</text>
<rect x="483" y="430" width="144" height="50" rx="10" fill="#ffffff" stroke="#4f9d69" stroke-width="1.5"/>
<text x="555.0" y="460.0" font-size="15" fill="#333333" text-anchor="middle" font-weight="700">子集和</text>
<line x1="430" y1="130" x2="430" y2="155" stroke="#2f6395" stroke-width="2.3" marker-end="url(#arrow-blue)"/>
<line x1="430" y1="205" x2="235" y2="245" stroke="#2f6395" stroke-width="2.3" marker-end="url(#arrow-blue)"/>
<line x1="430" y1="205" x2="430" y2="245" stroke="#2f6395" stroke-width="2.3" marker-end="url(#arrow-blue)"/>
<line x1="430" y1="205" x2="625" y2="245" stroke="#2f6395" stroke-width="2.3" marker-end="url(#arrow-blue)"/>
<line x1="235" y1="295" x2="305" y2="340" stroke="#2f6395" stroke-width="2.3" marker-end="url(#arrow-blue)"/>
<line x1="625" y1="295" x2="555" y2="340" stroke="#2f6395" stroke-width="2.3" marker-end="url(#arrow-blue)"/>
<line x1="305" y1="390" x2="305" y2="430" stroke="#2f6395" stroke-width="2.3" marker-end="url(#arrow-blue)"/>
<line x1="555" y1="390" x2="555" y2="430" stroke="#2f6395" stroke-width="2.3" marker-end="url(#arrow-blue)"/>
<line x1="430" y1="295" x2="625" y2="295" stroke="#2f6395" stroke-width="2.3" marker-end="url(#arrow-blue)"/>
<rect x="68" y="392" width="220" height="82" rx="10" fill="#dcebf8" stroke="#2f6395" stroke-width="1.5"/>
<text x="84" y="423" font-size="14" fill="#333333" text-anchor="start" font-weight="400">A ≤p B：若能快速解</text>
<text x="84" y="443" font-size="14" fill="#333333" text-anchor="start" font-weight="400">B，就能快速解 A</text>
<text x="700" y="444" font-size="15" fill="#6b7280" text-anchor="start" font-weight="400">箭头方向 = 归约方向</text>
</svg>
