<?xml version="1.0" encoding="utf-8" standalone="no"?>
<!DOCTYPE svg PUBLIC "-//W3C//DTD SVG 1.1//EN"
  "http://www.w3.org/Graphics/SVG/1.1/DTD/svg11.dtd">
<svg xmlns:xlink="http://www.w3.org/1999/xlink" width="633.6pt" height="378pt" viewBox="0 0 633.6 378" xmlns="http://www.w3.org/2000/svg" version="1.1">
 <metadata>
  <rdf:RDF xmlns:dc="http://purl.org/dc/elements/1.1/" xmlns:cc="http://creativecommons.org/ns#" xmlns:rdf="http://www.w3.org/1999/02/22-rdf-syntax-ns#">
   <cc:Work>
    <dc:type rdf:resource="http://purl.org/dc/dcmitype/StillImage"/>
    <dc:format>image/svg+xml</dc:format>
    <dc:creator>
     <cc:Agent>
      <dc:title>Matplotlib v3.11.0, https://matplotlib.org/</dc:title>
     </cc:Agent>
    </dc:creator>
   </cc:Work>
  </rdf:RDF>
 </metadata>
 <defs>
  <style type="text/css">*{stroke-linejoin: round; stroke-linecap: butt}</style>
 </defs>
 <g id="figure_1">
  <g id="patch_1">
   <path d="M 0 378 
L 633.6 378 
L 633.6 0 
L 0 0 
z
" style="fill: #ffffff"/>
  </g>
  <g id="axes_1">
   <g id="patch_2">
    <path d="M 38.016 332.64 
L 278.858105 332.64 
L 278.858105 52.92 
L 38.016 52.92 
z
" style="fill: #ffffff"/>
   </g>
   <g id="matplotlib.axis_1">
    <g id="xtick_1">
     <g id="line2d_1">
      <defs>
       <path id="m035dea65c4" d="M 0 0 
L 0 4 
" style="stroke: #444444; stroke-width: 1.5"/>
      </defs>
      <g>
       <use xlink:href="#m035dea65c4" x="38.016" y="332.64" style="fill: #444444; stroke: #444444; stroke-width: 1.5"/>
      </g>
     </g>
     <g id="text_1">
      <!-- $\mathdefault{10^{0}}$ -->
      <g style="fill: #444444" transform="translate(28.336 350.48) scale(0.11 -0.11)">
       <defs>
        <path id="DejaVuSans-14" d="M 794 531 
L 1825 531 
L 1825 4091 
L 703 3866 
L 703 4441 
L 1819 4666 
L 2450 4666 
L 2450 531 
L 3481 531 
L 3481 0 
L 794 0 
L 794 531 
z
" transform="scale(0.015625)"/>
        <path id="DejaVuSans-13" d="M 2034 4250 
Q 1547 4250 1301 3770 
Q 1056 3291 1056 2328 
Q 1056 1369 1301 889 
Q 1547 409 2034 409 
Q 2525 409 2770 889 
Q 3016 1369 3016 2328 
Q 3016 3291 2770 3770 
Q 2525 4250 2034 4250 
z
M 2034 4750 
Q 2819 4750 3233 4129 
Q 3647 3509 3647 2328 
Q 3647 1150 3233 529 
Q 2819 -91 2034 -91 
Q 1250 -91 836 529 
Q 422 1150 422 2328 
Q 422 3509 836 4129 
Q 1250 4750 2034 4750 
z
" transform="scale(0.015625)"/>
       </defs>
       <use xlink:href="#DejaVuSans-14" transform="translate(0 0.746875)"/>
       <use xlink:href="#DejaVuSans-13" transform="translate(63.623047 0.746875)"/>
       <use xlink:href="#DejaVuSans-13" transform="translate(128.203125 42.046875) scale(0.7)"/>
      </g>
     </g>
    </g>
    <g id="xtick_2">
     <g id="line2d_2">
      <g>
       <use xlink:href="#m035dea65c4" x="98.226526" y="332.64" style="fill: #444444; stroke: #444444; stroke-width: 1.5"/>
      </g>
     </g>
     <g id="text_2">
      <!-- $\mathdefault{10^{1}}$ -->
      <g style="fill: #444444" transform="translate(88.546526 350.37) scale(0.11 -0.11)">
       <use xlink:href="#DejaVuSans-14" transform="translate(0 0.665625)"/>
       <use xlink:href="#DejaVuSans-13" transform="translate(63.623047 0.665625)"/>
       <use xlink:href="#DejaVuSans-14" transform="translate(128.203125 41.965625) scale(0.7)"/>
      </g>
     </g>
    </g>
    <g id="xtick_3">
     <g id="line2d_3">
      <g>
       <use xlink:href="#m035dea65c4" x="158.437053" y="332.64" style="fill: #444444; stroke: #444444; stroke-width: 1.5"/>
      </g>
     </g>
     <g id="text_3">
      <!-- $\mathdefault{10^{2}}$ -->
      <g style="fill: #444444" transform="translate(148.757053 350.48) scale(0.11 -0.11)">
       <defs>
        <path id="DejaVuSans-15" d="M 1228 531 
L 3431 531 
L 3431 0 
L 469 0 
L 469 531 
Q 828 903 1448 1529 
Q 2069 2156 2228 2338 
Q 2531 2678 2651 2914 
Q 2772 3150 2772 3378 
Q 2772 3750 2511 3984 
Q 2250 4219 1831 4219 
Q 1534 4219 1204 4116 
Q 875 4013 500 3803 
L 500 4441 
Q 881 4594 1212 4672 
Q 1544 4750 1819 4750 
Q 2544 4750 2975 4387 
Q 3406 4025 3406 3419 
Q 3406 3131 3298 2873 
Q 3191 2616 2906 2266 
Q 2828 2175 2409 1742 
Q 1991 1309 1228 531 
z
" transform="scale(0.015625)"/>
       </defs>
       <use xlink:href="#DejaVuSans-14" transform="translate(0 0.746875)"/>
       <use xlink:href="#DejaVuSans-13" transform="translate(63.623047 0.746875)"/>
       <use xlink:href="#DejaVuSans-15" transform="translate(128.203125 42.046875) scale(0.7)"/>
      </g>
     </g>
    </g>
    <g id="xtick_4">
     <g id="line2d_4">
      <g>
       <use xlink:href="#m035dea65c4" x="218.647579" y="332.64" style="fill: #444444; stroke: #444444; stroke-width: 1.5"/>
      </g>
     </g>
     <g id="text_4">
      <!-- $\mathdefault{10^{3}}$ -->
      <g style="fill: #444444" transform="translate(208.967579 350.48) scale(0.11 -0.11)">
       <defs>
        <path id="DejaVuSans-16" d="M 2597 2516 
Q 3050 2419 3304 2112 
Q 3559 1806 3559 1356 
Q 3559 666 3084 287 
Q 2609 -91 1734 -91 
Q 1441 -91 1130 -33 
Q 819 25 488 141 
L 488 750 
Q 750 597 1062 519 
Q 1375 441 1716 441 
Q 2309 441 2620 675 
Q 2931 909 2931 1356 
Q 2931 1769 2642 2001 
Q 2353 2234 1838 2234 
L 1294 2234 
L 1294 2753 
L 1863 2753 
Q 2328 2753 2575 2939 
Q 2822 3125 2822 3475 
Q 2822 3834 2567 4026 
Q 2313 4219 1838 4219 
Q 1578 4219 1281 4162 
Q 984 4106 628 3988 
L 628 4550 
Q 988 4650 1302 4700 
Q 1616 4750 1894 4750 
Q 2613 4750 3031 4423 
Q 3450 4097 3450 3541 
Q 3450 3153 3228 2886 
Q 3006 2619 2597 2516 
z
" transform="scale(0.015625)"/>
       </defs>
       <use xlink:href="#DejaVuSans-14" transform="translate(0 0.746875)"/>
       <use xlink:href="#DejaVuSans-13" transform="translate(63.623047 0.746875)"/>
       <use xlink:href="#DejaVuSans-16" transform="translate(128.203125 42.046875) scale(0.7)"/>
      </g>
     </g>
    </g>
    <g id="xtick_5">
     <g id="line2d_5">
      <g>
       <use xlink:href="#m035dea65c4" x="278.858105" y="332.64" style="fill: #444444; stroke: #444444; stroke-width: 1.5"/>
      </g>
     </g>
     <g id="text_5">
      <!-- $\mathdefault{10^{4}}$ -->
      <g style="fill: #444444" transform="translate(269.178105 350.37) scale(0.11 -0.11)">
       <defs>
        <path id="DejaVuSans-17" d="M 2419 4116 
L 825 1625 
L 2419 1625 
L 2419 4116 
z
M 2253 4666 
L 3047 4666 
L 3047 1625 
L 3713 1625 
L 3713 1100 
L 3047 1100 
L 3047 0 
L 2419 0 
L 2419 1100 
L 313 1100 
L 313 1709 
L 2253 4666 
z
" transform="scale(0.015625)"/>
       </defs>
       <use xlink:href="#DejaVuSans-14" transform="translate(0 0.665625)"/>
       <use xlink:href="#DejaVuSans-13" transform="translate(63.623047 0.665625)"/>
       <use xlink:href="#DejaVuSans-17" transform="translate(128.203125 41.965625) scale(0.7)"/>
      </g>
     </g>
    </g>
    <g id="xtick_6">
     <g id="line2d_6">
      <defs>
       <path id="mdc387b37be" d="M 0 0 
L 0 2 
" style="stroke: #444444; stroke-width: 1.5"/>
      </defs>
      <g>
       <use xlink:href="#mdc387b37be" x="56.141174" y="332.64" style="fill: #444444; stroke: #444444; stroke-width: 1.5"/>
      </g>
     </g>
    </g>
    <g id="xtick_7">
     <g id="line2d_7">
      <g>
       <use xlink:href="#mdc387b37be" x="66.743722" y="332.64" style="fill: #444444; stroke: #444444; stroke-width: 1.5"/>
      </g>
     </g>
    </g>
    <g id="xtick_8">
     <g id="line2d_8">
      <g>
       <use xlink:href="#mdc387b37be" x="74.266349" y="332.64" style="fill: #444444; stroke: #444444; stroke-width: 1.5"/>
      </g>
     </g>
    </g>
    <g id="xtick_9">
     <g id="line2d_9">
      <g>
       <use xlink:href="#mdc387b37be" x="80.101352" y="332.64" style="fill: #444444; stroke: #444444; stroke-width: 1.5"/>
      </g>
     </g>
    </g>
    <g id="xtick_10">
     <g id="line2d_10">
      <g>
       <use xlink:href="#mdc387b37be" x="84.868896" y="332.64" style="fill: #444444; stroke: #444444; stroke-width: 1.5"/>
      </g>
     </g>
    </g>
    <g id="xtick_11">
     <g id="line2d_11">
      <g>
       <use xlink:href="#mdc387b37be" x="88.899798" y="332.64" style="fill: #444444; stroke: #444444; stroke-width: 1.5"/>
      </g>
     </g>
    </g>
    <g id="xtick_12">
     <g id="line2d_12">
      <g>
       <use xlink:href="#mdc387b37be" x="92.391523" y="332.64" style="fill: #444444; stroke: #444444; stroke-width: 1.5"/>
      </g>
     </g>
    </g>
    <g id="xtick_13">
     <g id="line2d_13">
      <g>
       <use xlink:href="#mdc387b37be" x="95.471444" y="332.64" style="fill: #444444; stroke: #444444; stroke-width: 1.5"/>
      </g>
     </g>
    </g>
    <g id="xtick_14">
     <g id="line2d_14">
      <g>
       <use xlink:href="#mdc387b37be" x="116.351701" y="332.64" style="fill: #444444; stroke: #444444; stroke-width: 1.5"/>
      </g>
     </g>
    </g>
    <g id="xtick_15">
     <g id="line2d_15">
      <g>
       <use xlink:href="#mdc387b37be" x="126.954248" y="332.64" style="fill: #444444; stroke: #444444; stroke-width: 1.5"/>
      </g>
     </g>
    </g>
    <g id="xtick_16">
     <g id="line2d_16">
      <g>
       <use xlink:href="#mdc387b37be" x="134.476875" y="332.64" style="fill: #444444; stroke: #444444; stroke-width: 1.5"/>
      </g>
     </g>
    </g>
    <g id="xtick_17">
     <g id="line2d_17">
      <g>
       <use xlink:href="#mdc387b37be" x="140.311878" y="332.64" style="fill: #444444; stroke: #444444; stroke-width: 1.5"/>
      </g>
     </g>
    </g>
    <g id="xtick_18">
     <g id="line2d_18">
      <g>
       <use xlink:href="#mdc387b37be" x="145.079423" y="332.64" style="fill: #444444; stroke: #444444; stroke-width: 1.5"/>
      </g>
     </g>
    </g>
    <g id="xtick_19">
     <g id="line2d_19">
      <g>
       <use xlink:href="#mdc387b37be" x="149.110324" y="332.64" style="fill: #444444; stroke: #444444; stroke-width: 1.5"/>
      </g>
     </g>
    </g>
    <g id="xtick_20">
     <g id="line2d_20">
      <g>
       <use xlink:href="#mdc387b37be" x="152.60205" y="332.64" style="fill: #444444; stroke: #444444; stroke-width: 1.5"/>
      </g>
     </g>
    </g>
    <g id="xtick_21">
     <g id="line2d_21">
      <g>
       <use xlink:href="#mdc387b37be" x="155.68197" y="332.64" style="fill: #444444; stroke: #444444; stroke-width: 1.5"/>
      </g>
     </g>
    </g>
    <g id="xtick_22">
     <g id="line2d_22">
      <g>
       <use xlink:href="#mdc387b37be" x="176.562227" y="332.64" style="fill: #444444; stroke: #444444; stroke-width: 1.5"/>
      </g>
     </g>
    </g>
    <g id="xtick_23">
     <g id="line2d_23">
      <g>
       <use xlink:href="#mdc387b37be" x="187.164774" y="332.64" style="fill: #444444; stroke: #444444; stroke-width: 1.5"/>
      </g>
     </g>
    </g>
    <g id="xtick_24">
     <g id="line2d_24">
      <g>
       <use xlink:href="#mdc387b37be" x="194.687402" y="332.64" style="fill: #444444; stroke: #444444; stroke-width: 1.5"/>
      </g>
     </g>
    </g>
    <g id="xtick_25">
     <g id="line2d_25">
      <g>
       <use xlink:href="#mdc387b37be" x="200.522404" y="332.64" style="fill: #444444; stroke: #444444; stroke-width: 1.5"/>
      </g>
     </g>
    </g>
    <g id="xtick_26">
     <g id="line2d_26">
      <g>
       <use xlink:href="#mdc387b37be" x="205.289949" y="332.64" style="fill: #444444; stroke: #444444; stroke-width: 1.5"/>
      </g>
     </g>
    </g>
    <g id="xtick_27">
     <g id="line2d_27">
      <g>
       <use xlink:href="#mdc387b37be" x="209.32085" y="332.64" style="fill: #444444; stroke: #444444; stroke-width: 1.5"/>
      </g>
     </g>
    </g>
    <g id="xtick_28">
     <g id="line2d_28">
      <g>
       <use xlink:href="#mdc387b37be" x="212.812576" y="332.64" style="fill: #444444; stroke: #444444; stroke-width: 1.5"/>
      </g>
     </g>
    </g>
    <g id="xtick_29">
     <g id="line2d_29">
      <g>
       <use xlink:href="#mdc387b37be" x="215.892496" y="332.64" style="fill: #444444; stroke: #444444; stroke-width: 1.5"/>
      </g>
     </g>
    </g>
    <g id="xtick_30">
     <g id="line2d_30">
      <g>
       <use xlink:href="#mdc387b37be" x="236.772753" y="332.64" style="fill: #444444; stroke: #444444; stroke-width: 1.5"/>
      </g>
     </g>
    </g>
    <g id="xtick_31">
     <g id="line2d_31">
      <g>
       <use xlink:href="#mdc387b37be" x="247.375301" y="332.64" style="fill: #444444; stroke: #444444; stroke-width: 1.5"/>
      </g>
     </g>
    </g>
    <g id="xtick_32">
     <g id="line2d_32">
      <g>
       <use xlink:href="#mdc387b37be" x="254.897928" y="332.64" style="fill: #444444; stroke: #444444; stroke-width: 1.5"/>
      </g>
     </g>
    </g>
    <g id="xtick_33">
     <g id="line2d_33">
      <g>
       <use xlink:href="#mdc387b37be" x="260.732931" y="332.64" style="fill: #444444; stroke: #444444; stroke-width: 1.5"/>
      </g>
     </g>
    </g>
    <g id="xtick_34">
     <g id="line2d_34">
      <g>
       <use xlink:href="#mdc387b37be" x="265.500475" y="332.64" style="fill: #444444; stroke: #444444; stroke-width: 1.5"/>
      </g>
     </g>
    </g>
    <g id="xtick_35">
     <g id="line2d_35">
      <g>
       <use xlink:href="#mdc387b37be" x="269.531377" y="332.64" style="fill: #444444; stroke: #444444; stroke-width: 1.5"/>
      </g>
     </g>
    </g>
    <g id="xtick_36">
     <g id="line2d_36">
      <g>
       <use xlink:href="#mdc387b37be" x="273.023102" y="332.64" style="fill: #444444; stroke: #444444; stroke-width: 1.5"/>
      </g>
     </g>
    </g>
    <g id="xtick_37">
     <g id="line2d_37">
      <g>
       <use xlink:href="#mdc387b37be" x="276.103023" y="332.64" style="fill: #444444; stroke: #444444; stroke-width: 1.5"/>
      </g>
     </g>
    </g>
    <g id="text_6">
     <!-- resource count  N -->
     <g transform="translate(109.773225 365.48) scale(0.11 -0.11)">
      <defs>
       <path id="DejaVuSans-55" d="M 2631 2963 
Q 2534 3019 2420 3045 
Q 2306 3072 2169 3072 
Q 1681 3072 1420 2755 
Q 1159 2438 1159 1844 
L 1159 0 
L 581 0 
L 581 3500 
L 1159 3500 
L 1159 2956 
Q 1341 3275 1631 3429 
Q 1922 3584 2338 3584 
Q 2397 3584 2469 3576 
Q 2541 3569 2628 3553 
L 2631 2963 
z
" transform="scale(0.015625)"/>
       <path id="DejaVuSans-48" d="M 3597 1894 
L 3597 1613 
L 953 1613 
Q 991 1019 1311 708 
Q 1631 397 2203 397 
Q 2534 397 2845 478 
Q 3156 559 3463 722 
L 3463 178 
Q 3153 47 2828 -22 
Q 2503 -91 2169 -91 
Q 1331 -91 842 396 
Q 353 884 353 1716 
Q 353 2575 817 3079 
Q 1281 3584 2069 3584 
Q 2775 3584 3186 3129 
Q 3597 2675 3597 1894 
z
M 3022 2063 
Q 3016 2534 2758 2815 
Q 2500 3097 2075 3097 
Q 1594 3097 1305 2825 
Q 1016 2553 972 2059 
L 3022 2063 
z
" transform="scale(0.015625)"/>
       <path id="DejaVuSans-56" d="M 2834 3397 
L 2834 2853 
Q 2591 2978 2328 3040 
Q 2066 3103 1784 3103 
Q 1356 3103 1142 2972 
Q 928 2841 928 2578 
Q 928 2378 1081 2264 
Q 1234 2150 1697 2047 
L 1894 2003 
Q 2506 1872 2764 1633 
Q 3022 1394 3022 966 
Q 3022 478 2636 193 
Q 2250 -91 1575 -91 
Q 1294 -91 989 -36 
Q 684 19 347 128 
L 347 722 
Q 666 556 975 473 
Q 1284 391 1588 391 
Q 1994 391 2212 530 
Q 2431 669 2431 922 
Q 2431 1156 2273 1281 
Q 2116 1406 1581 1522 
L 1381 1569 
Q 847 1681 609 1914 
Q 372 2147 372 2553 
Q 372 3047 722 3315 
Q 1072 3584 1716 3584 
Q 2034 3584 2315 3537 
Q 2597 3491 2834 3397 
z
" transform="scale(0.015625)"/>
       <path id="DejaVuSans-52" d="M 1959 3097 
Q 1497 3097 1228 2736 
Q 959 2375 959 1747 
Q 959 1119 1226 758 
Q 1494 397 1959 397 
Q 2419 397 2687 759 
Q 2956 1122 2956 1747 
Q 2956 2369 2687 2733 
Q 2419 3097 1959 3097 
z
M 1959 3584 
Q 2709 3584 3137 3096 
Q 3566 2609 3566 1747 
Q 3566 888 3137 398 
Q 2709 -91 1959 -91 
Q 1206 -91 779 398 
Q 353 888 353 1747 
Q 353 2609 779 3096 
Q 1206 3584 1959 3584 
z
" transform="scale(0.015625)"/>
       <path id="DejaVuSans-58" d="M 544 1381 
L 544 3500 
L 1119 3500 
L 1119 1403 
Q 1119 906 1312 657 
Q 1506 409 1894 409 
Q 2359 409 2629 706 
Q 2900 1003 2900 1516 
L 2900 3500 
L 3475 3500 
L 3475 0 
L 2900 0 
L 2900 538 
Q 2691 219 2414 64 
Q 2138 -91 1772 -91 
Q 1169 -91 856 284 
Q 544 659 544 1381 
z
M 1991 3584 
L 1991 3584 
z
" transform="scale(0.015625)"/>
       <path id="DejaVuSans-46" d="M 3122 3366 
L 3122 2828 
Q 2878 2963 2633 3030 
Q 2388 3097 2138 3097 
Q 1578 3097 1268 2742 
Q 959 2388 959 1747 
Q 959 1106 1268 751 
Q 1578 397 2138 397 
Q 2388 397 2633 464 
Q 2878 531 3122 666 
L 3122 134 
Q 2881 22 2623 -34 
Q 2366 -91 2075 -91 
Q 1284 -91 818 406 
Q 353 903 353 1747 
Q 353 2603 823 3093 
Q 1294 3584 2113 3584 
Q 2378 3584 2631 3529 
Q 2884 3475 3122 3366 
z
" transform="scale(0.015625)"/>
       <path id="DejaVuSans-3" transform="scale(0.015625)"/>
       <path id="DejaVuSans-51" d="M 3513 2113 
L 3513 0 
L 2938 0 
L 2938 2094 
Q 2938 2591 2744 2837 
Q 2550 3084 2163 3084 
Q 1697 3084 1428 2787 
Q 1159 2491 1159 1978 
L 1159 0 
L 581 0 
L 581 3500 
L 1159 3500 
L 1159 2956 
Q 1366 3272 1645 3428 
Q 1925 3584 2291 3584 
Q 2894 3584 3203 3211 
Q 3513 2838 3513 2113 
z
" transform="scale(0.015625)"/>
       <path id="DejaVuSans-57" d="M 1172 4494 
L 1172 3500 
L 2356 3500 
L 2356 3053 
L 1172 3053 
L 1172 1153 
Q 1172 725 1289 603 
Q 1406 481 1766 481 
L 2356 481 
L 2356 0 
L 1766 0 
Q 1100 0 847 248 
Q 594 497 594 1153 
L 594 3053 
L 172 3053 
L 172 3500 
L 594 3500 
L 594 4494 
L 1172 4494 
z
" transform="scale(0.015625)"/>
       <path id="DejaVuSans-31" d="M 628 4666 
L 1478 4666 
L 3547 763 
L 3547 4666 
L 4159 4666 
L 4159 0 
L 3309 0 
L 1241 3903 
L 1241 0 
L 628 0 
L 628 4666 
z
" transform="scale(0.015625)"/>
      </defs>
      <use xlink:href="#DejaVuSans-55"/>
      <use xlink:href="#DejaVuSans-48" transform="translate(38.90625 0)"/>
      <use xlink:href="#DejaVuSans-56" transform="translate(100.4375 0)"/>
      <use xlink:href="#DejaVuSans-52" transform="translate(152.53125 0)"/>
      <use xlink:href="#DejaVuSans-58" transform="translate(213.71875 0)"/>
      <use xlink:href="#DejaVuSans-55" transform="translate(277.09375 0)"/>
      <use xlink:href="#DejaVuSans-46" transform="translate(316 0)"/>
      <use xlink:href="#DejaVuSans-48" transform="translate(370.984375 0)"/>
      <use xlink:href="#DejaVuSans-3" transform="translate(432.515625 0)"/>
      <use xlink:href="#DejaVuSans-46" transform="translate(464.296875 0)"/>
      <use xlink:href="#DejaVuSans-52" transform="translate(519.28125 0)"/>
      <use xlink:href="#DejaVuSans-58" transform="translate(580.46875 0)"/>
      <use xlink:href="#DejaVuSans-51" transform="translate(643.84375 0)"/>
      <use xlink:href="#DejaVuSans-57" transform="translate(707.21875 0)"/>
      <use xlink:href="#DejaVuSans-3" transform="translate(746.421875 0)"/>
      <use xlink:href="#DejaVuSans-3" transform="translate(778.203125 0)"/>
      <use xlink:href="#DejaVuSans-31" transform="translate(809.984375 0)"/>
     </g>
    </g>
   </g>
   <g id="matplotlib.axis_2">
    <g id="ytick_1">
     <g id="line2d_38">
      <defs>
       <path id="m693b05b6cb" d="M 0 0 
L -4 0 
" style="stroke: #444444; stroke-width: 1.5"/>
      </defs>
      <g>
       <use xlink:href="#m693b05b6cb" x="38.016" y="313.062338" style="fill: #444444; stroke: #444444; stroke-width: 1.5"/>
      </g>
     </g>
     <g id="text_7">
      <!-- $\mathdefault{10^{-4}}$ -->
      <g style="fill: #444444" transform="translate(4.666 318.177338) scale(0.11 -0.11)">
       <defs>
        <path id="DejaVuSans-c9c" d="M 678 2272 
L 4684 2272 
L 4684 1741 
L 678 1741 
L 678 2272 
z
" transform="scale(0.015625)"/>
       </defs>
       <use xlink:href="#DejaVuSans-14" transform="translate(0 0.665625)"/>
       <use xlink:href="#DejaVuSans-13" transform="translate(63.623047 0.665625)"/>
       <use xlink:href="#DejaVuSans-c9c" transform="translate(128.203125 41.965625) scale(0.7)"/>
       <use xlink:href="#DejaVuSans-17" transform="translate(186.855469 41.965625) scale(0.7)"/>
      </g>
     </g>
    </g>
    <g id="ytick_2">
     <g id="line2d_39">
      <g>
       <use xlink:href="#m693b05b6cb" x="38.016" y="248.026754" style="fill: #444444; stroke: #444444; stroke-width: 1.5"/>
      </g>
     </g>
     <g id="text_8">
      <!-- $\mathdefault{10^{-3}}$ -->
      <g style="fill: #444444" transform="translate(4.666 253.196754) scale(0.11 -0.11)">
       <use xlink:href="#DejaVuSans-14" transform="translate(0 0.746875)"/>
       <use xlink:href="#DejaVuSans-13" transform="translate(63.623047 0.746875)"/>
       <use xlink:href="#DejaVuSans-c9c" transform="translate(128.203125 42.046875) scale(0.7)"/>
       <use xlink:href="#DejaVuSans-16" transform="translate(186.855469 42.046875) scale(0.7)"/>
      </g>
     </g>
    </g>
    <g id="ytick_3">
     <g id="line2d_40">
      <g>
       <use xlink:href="#m693b05b6cb" x="38.016" y="182.991169" style="fill: #444444; stroke: #444444; stroke-width: 1.5"/>
      </g>
     </g>
     <g id="text_9">
      <!-- $\mathdefault{10^{-2}}$ -->
      <g style="fill: #444444" transform="translate(4.666 188.161169) scale(0.11 -0.11)">
       <use xlink:href="#DejaVuSans-14" transform="translate(0 0.746875)"/>
       <use xlink:href="#DejaVuSans-13" transform="translate(63.623047 0.746875)"/>
       <use xlink:href="#DejaVuSans-c9c" transform="translate(128.203125 42.046875) scale(0.7)"/>
       <use xlink:href="#DejaVuSans-15" transform="translate(186.855469 42.046875) scale(0.7)"/>
      </g>
     </g>
    </g>
    <g id="ytick_4">
     <g id="line2d_41">
      <g>
       <use xlink:href="#m693b05b6cb" x="38.016" y="117.955585" style="fill: #444444; stroke: #444444; stroke-width: 1.5"/>
      </g>
     </g>
     <g id="text_10">
      <!-- $\mathdefault{10^{-1}}$ -->
      <g style="fill: #444444" transform="translate(4.666 123.070585) scale(0.11 -0.11)">
       <use xlink:href="#DejaVuSans-14" transform="translate(0 0.665625)"/>
       <use xlink:href="#DejaVuSans-13" transform="translate(63.623047 0.665625)"/>
       <use xlink:href="#DejaVuSans-c9c" transform="translate(128.203125 41.965625) scale(0.7)"/>
       <use xlink:href="#DejaVuSans-14" transform="translate(186.855469 41.965625) scale(0.7)"/>
      </g>
     </g>
    </g>
    <g id="ytick_5">
     <g id="line2d_42">
      <g>
       <use xlink:href="#m693b05b6cb" x="38.016" y="52.92" style="fill: #444444; stroke: #444444; stroke-width: 1.5"/>
      </g>
     </g>
     <g id="text_11">
      <!-- $\mathdefault{10^{0}}$ -->
      <g style="fill: #444444" transform="translate(11.156 58.09) scale(0.11 -0.11)">
       <use xlink:href="#DejaVuSans-14" transform="translate(0 0.746875)"/>
       <use xlink:href="#DejaVuSans-13" transform="translate(63.623047 0.746875)"/>
       <use xlink:href="#DejaVuSans-13" transform="translate(128.203125 42.046875) scale(0.7)"/>
      </g>
     </g>
    </g>
    <g id="ytick_6">
     <g id="line2d_43">
      <defs>
       <path id="m4ae7a38286" d="M 0 0 
L -2 0 
" style="stroke: #444444; stroke-width: 1.5"/>
      </defs>
      <g>
       <use xlink:href="#m4ae7a38286" x="38.016" y="332.64" style="fill: #444444; stroke: #444444; stroke-width: 1.5"/>
      </g>
     </g>
    </g>
    <g id="ytick_7">
     <g id="line2d_44">
      <g>
       <use xlink:href="#m4ae7a38286" x="38.016" y="327.490401" style="fill: #444444; stroke: #444444; stroke-width: 1.5"/>
      </g>
     </g>
    </g>
    <g id="ytick_8">
     <g id="line2d_45">
      <g>
       <use xlink:href="#m4ae7a38286" x="38.016" y="323.136478" style="fill: #444444; stroke: #444444; stroke-width: 1.5"/>
      </g>
     </g>
    </g>
    <g id="ytick_9">
     <g id="line2d_46">
      <g>
       <use xlink:href="#m4ae7a38286" x="38.016" y="319.364938" style="fill: #444444; stroke: #444444; stroke-width: 1.5"/>
      </g>
     </g>
    </g>
    <g id="ytick_10">
     <g id="line2d_47">
      <g>
       <use xlink:href="#m4ae7a38286" x="38.016" y="316.038203" style="fill: #444444; stroke: #444444; stroke-width: 1.5"/>
      </g>
     </g>
    </g>
    <g id="ytick_11">
     <g id="line2d_48">
      <g>
       <use xlink:href="#m4ae7a38286" x="38.016" y="293.484677" style="fill: #444444; stroke: #444444; stroke-width: 1.5"/>
      </g>
     </g>
    </g>
    <g id="ytick_12">
     <g id="line2d_49">
      <g>
       <use xlink:href="#m4ae7a38286" x="38.016" y="282.032479" style="fill: #444444; stroke: #444444; stroke-width: 1.5"/>
      </g>
     </g>
    </g>
    <g id="ytick_13">
     <g id="line2d_50">
      <g>
       <use xlink:href="#m4ae7a38286" x="38.016" y="273.907015" style="fill: #444444; stroke: #444444; stroke-width: 1.5"/>
      </g>
     </g>
    </g>
    <g id="ytick_14">
     <g id="line2d_51">
      <g>
       <use xlink:href="#m4ae7a38286" x="38.016" y="267.604415" style="fill: #444444; stroke: #444444; stroke-width: 1.5"/>
      </g>
     </g>
    </g>
    <g id="ytick_15">
     <g id="line2d_52">
      <g>
       <use xlink:href="#m4ae7a38286" x="38.016" y="262.454817" style="fill: #444444; stroke: #444444; stroke-width: 1.5"/>
      </g>
     </g>
    </g>
    <g id="ytick_16">
     <g id="line2d_53">
      <g>
       <use xlink:href="#m4ae7a38286" x="38.016" y="258.100893" style="fill: #444444; stroke: #444444; stroke-width: 1.5"/>
      </g>
     </g>
    </g>
    <g id="ytick_17">
     <g id="line2d_54">
      <g>
       <use xlink:href="#m4ae7a38286" x="38.016" y="254.329353" style="fill: #444444; stroke: #444444; stroke-width: 1.5"/>
      </g>
     </g>
    </g>
    <g id="ytick_18">
     <g id="line2d_55">
      <g>
       <use xlink:href="#m4ae7a38286" x="38.016" y="251.002619" style="fill: #444444; stroke: #444444; stroke-width: 1.5"/>
      </g>
     </g>
    </g>
    <g id="ytick_19">
     <g id="line2d_56">
      <g>
       <use xlink:href="#m4ae7a38286" x="38.016" y="228.449092" style="fill: #444444; stroke: #444444; stroke-width: 1.5"/>
      </g>
     </g>
    </g>
    <g id="ytick_20">
     <g id="line2d_57">
      <g>
       <use xlink:href="#m4ae7a38286" x="38.016" y="216.996894" style="fill: #444444; stroke: #444444; stroke-width: 1.5"/>
      </g>
     </g>
    </g>
    <g id="ytick_21">
     <g id="line2d_58">
      <g>
       <use xlink:href="#m4ae7a38286" x="38.016" y="208.87143" style="fill: #444444; stroke: #444444; stroke-width: 1.5"/>
      </g>
     </g>
    </g>
    <g id="ytick_22">
     <g id="line2d_59">
      <g>
       <use xlink:href="#m4ae7a38286" x="38.016" y="202.568831" style="fill: #444444; stroke: #444444; stroke-width: 1.5"/>
      </g>
     </g>
    </g>
    <g id="ytick_23">
     <g id="line2d_60">
      <g>
       <use xlink:href="#m4ae7a38286" x="38.016" y="197.419232" style="fill: #444444; stroke: #444444; stroke-width: 1.5"/>
      </g>
     </g>
    </g>
    <g id="ytick_24">
     <g id="line2d_61">
      <g>
       <use xlink:href="#m4ae7a38286" x="38.016" y="193.065309" style="fill: #444444; stroke: #444444; stroke-width: 1.5"/>
      </g>
     </g>
    </g>
    <g id="ytick_25">
     <g id="line2d_62">
      <g>
       <use xlink:href="#m4ae7a38286" x="38.016" y="189.293768" style="fill: #444444; stroke: #444444; stroke-width: 1.5"/>
      </g>
     </g>
    </g>
    <g id="ytick_26">
     <g id="line2d_63">
      <g>
       <use xlink:href="#m4ae7a38286" x="38.016" y="185.967034" style="fill: #444444; stroke: #444444; stroke-width: 1.5"/>
      </g>
     </g>
    </g>
    <g id="ytick_27">
     <g id="line2d_64">
      <g>
       <use xlink:href="#m4ae7a38286" x="38.016" y="163.413507" style="fill: #444444; stroke: #444444; stroke-width: 1.5"/>
      </g>
     </g>
    </g>
    <g id="ytick_28">
     <g id="line2d_65">
      <g>
       <use xlink:href="#m4ae7a38286" x="38.016" y="151.961309" style="fill: #444444; stroke: #444444; stroke-width: 1.5"/>
      </g>
     </g>
    </g>
    <g id="ytick_29">
     <g id="line2d_66">
      <g>
       <use xlink:href="#m4ae7a38286" x="38.016" y="143.835846" style="fill: #444444; stroke: #444444; stroke-width: 1.5"/>
      </g>
     </g>
    </g>
    <g id="ytick_30">
     <g id="line2d_67">
      <g>
       <use xlink:href="#m4ae7a38286" x="38.016" y="137.533246" style="fill: #444444; stroke: #444444; stroke-width: 1.5"/>
      </g>
     </g>
    </g>
    <g id="ytick_31">
     <g id="line2d_68">
      <g>
       <use xlink:href="#m4ae7a38286" x="38.016" y="132.383648" style="fill: #444444; stroke: #444444; stroke-width: 1.5"/>
      </g>
     </g>
    </g>
    <g id="ytick_32">
     <g id="line2d_69">
      <g>
       <use xlink:href="#m4ae7a38286" x="38.016" y="128.029724" style="fill: #444444; stroke: #444444; stroke-width: 1.5"/>
      </g>
     </g>
    </g>
    <g id="ytick_33">
     <g id="line2d_70">
      <g>
       <use xlink:href="#m4ae7a38286" x="38.016" y="124.258184" style="fill: #444444; stroke: #444444; stroke-width: 1.5"/>
      </g>
     </g>
    </g>
    <g id="ytick_34">
     <g id="line2d_71">
      <g>
       <use xlink:href="#m4ae7a38286" x="38.016" y="120.93145" style="fill: #444444; stroke: #444444; stroke-width: 1.5"/>
      </g>
     </g>
    </g>
    <g id="ytick_35">
     <g id="line2d_72">
      <g>
       <use xlink:href="#m4ae7a38286" x="38.016" y="98.377923" style="fill: #444444; stroke: #444444; stroke-width: 1.5"/>
      </g>
     </g>
    </g>
    <g id="ytick_36">
     <g id="line2d_73">
      <g>
       <use xlink:href="#m4ae7a38286" x="38.016" y="86.925725" style="fill: #444444; stroke: #444444; stroke-width: 1.5"/>
      </g>
     </g>
    </g>
    <g id="ytick_37">
     <g id="line2d_74">
      <g>
       <use xlink:href="#m4ae7a38286" x="38.016" y="78.800261" style="fill: #444444; stroke: #444444; stroke-width: 1.5"/>
      </g>
     </g>
    </g>
    <g id="ytick_38">
     <g id="line2d_75">
      <g>
       <use xlink:href="#m4ae7a38286" x="38.016" y="72.497662" style="fill: #444444; stroke: #444444; stroke-width: 1.5"/>
      </g>
     </g>
    </g>
    <g id="ytick_39">
     <g id="line2d_76">
      <g>
       <use xlink:href="#m4ae7a38286" x="38.016" y="67.348063" style="fill: #444444; stroke: #444444; stroke-width: 1.5"/>
      </g>
     </g>
    </g>
    <g id="ytick_40">
     <g id="line2d_77">
      <g>
       <use xlink:href="#m4ae7a38286" x="38.016" y="62.99414" style="fill: #444444; stroke: #444444; stroke-width: 1.5"/>
      </g>
     </g>
    </g>
    <g id="ytick_41">
     <g id="line2d_78">
      <g>
       <use xlink:href="#m4ae7a38286" x="38.016" y="59.222599" style="fill: #444444; stroke: #444444; stroke-width: 1.5"/>
      </g>
     </g>
    </g>
    <g id="ytick_42">
     <g id="line2d_79">
      <g>
       <use xlink:href="#m4ae7a38286" x="38.016" y="55.895865" style="fill: #444444; stroke: #444444; stroke-width: 1.5"/>
      </g>
     </g>
    </g>
    <g id="text_12">
     <!-- phase uncertainty  $\Delta\varphi$ -->
     <g transform="translate(-1.976578 253.61) rotate(-90) scale(0.11 -0.11)">
      <defs>
       <path id="DejaVuSans-53" d="M 1159 525 
L 1159 -1331 
L 581 -1331 
L 581 3500 
L 1159 3500 
L 1159 2969 
Q 1341 3281 1617 3432 
Q 1894 3584 2278 3584 
Q 2916 3584 3314 3078 
Q 3713 2572 3713 1747 
Q 3713 922 3314 415 
Q 2916 -91 2278 -91 
Q 1894 -91 1617 61 
Q 1341 213 1159 525 
z
M 3116 1747 
Q 3116 2381 2855 2742 
Q 2594 3103 2138 3103 
Q 1681 3103 1420 2742 
Q 1159 2381 1159 1747 
Q 1159 1113 1420 752 
Q 1681 391 2138 391 
Q 2594 391 2855 752 
Q 3116 1113 3116 1747 
z
" transform="scale(0.015625)"/>
       <path id="DejaVuSans-4b" d="M 3513 2113 
L 3513 0 
L 2938 0 
L 2938 2094 
Q 2938 2591 2744 2837 
Q 2550 3084 2163 3084 
Q 1697 3084 1428 2787 
Q 1159 2491 1159 1978 
L 1159 0 
L 581 0 
L 581 4863 
L 1159 4863 
L 1159 2956 
Q 1366 3272 1645 3428 
Q 1925 3584 2291 3584 
Q 2894 3584 3203 3211 
Q 3513 2838 3513 2113 
z
" transform="scale(0.015625)"/>
       <path id="DejaVuSans-44" d="M 2194 1759 
Q 1497 1759 1228 1600 
Q 959 1441 959 1056 
Q 959 750 1161 570 
Q 1363 391 1709 391 
Q 2188 391 2477 730 
Q 2766 1069 2766 1631 
L 2766 1759 
L 2194 1759 
z
M 3341 1997 
L 3341 0 
L 2766 0 
L 2766 531 
Q 2569 213 2275 61 
Q 1981 -91 1556 -91 
Q 1019 -91 701 211 
Q 384 513 384 1019 
Q 384 1609 779 1909 
Q 1175 2209 1959 2209 
L 2766 2209 
L 2766 2266 
Q 2766 2663 2505 2880 
Q 2244 3097 1772 3097 
Q 1472 3097 1187 3025 
Q 903 2953 641 2809 
L 641 3341 
Q 956 3463 1253 3523 
Q 1550 3584 1831 3584 
Q 2591 3584 2966 3190 
Q 3341 2797 3341 1997 
z
" transform="scale(0.015625)"/>
       <path id="DejaVuSans-4c" d="M 603 3500 
L 1178 3500 
L 1178 0 
L 603 0 
L 603 3500 
z
M 603 4863 
L 1178 4863 
L 1178 4134 
L 603 4134 
L 603 4863 
z
" transform="scale(0.015625)"/>
       <path id="DejaVuSans-5c" d="M 2059 -325 
Q 1816 -950 1584 -1140 
Q 1353 -1331 966 -1331 
L 506 -1331 
L 506 -850 
L 844 -850 
Q 1081 -850 1212 -737 
Q 1344 -625 1503 -206 
L 1606 56 
L 191 3500 
L 800 3500 
L 1894 763 
L 2988 3500 
L 3597 3500 
L 2059 -325 
z
" transform="scale(0.015625)"/>
       <path id="DejaVuSans-329" d="M 2188 4044 
L 906 525 
L 3472 525 
L 2188 4044 
z
M 50 0 
L 1831 4666 
L 2547 4666 
L 4325 0 
L 50 0 
z
" transform="scale(0.015625)"/>
       <path id="DejaVuSans-Oblique-35a" d="M 2969 3034 
Q 2766 3034 2675 2581 
L 2259 438 
Q 2553 438 2916 763 
Q 3244 1053 3375 1750 
Q 3497 2400 3300 2750 
Q 3138 3034 2969 3034 
z
M 3063 3525 
Q 3513 3525 3819 3113 
Q 4147 2672 3981 1750 
Q 3828 903 3291 400 
Q 2784 -75 2159 -75 
L 1916 -1331 
L 1344 -1331 
L 1588 -78 
Q 963 -78 641 400 
Q 309 888 475 1747 
Q 647 2641 1166 3097 
Q 1556 3438 2084 3525 
L 1984 3016 
Q 1766 2944 1538 2700 
Q 1194 2341 1081 1747 
Q 963 1116 1156 756 
Q 1334 434 1688 434 
L 2103 2581 
Q 2288 3525 3063 3525 
z
" transform="scale(0.015625)"/>
      </defs>
      <use xlink:href="#DejaVuSans-53" transform="translate(0 0.015625)"/>
      <use xlink:href="#DejaVuSans-4b" transform="translate(63.476562 0.015625)"/>
      <use xlink:href="#DejaVuSans-44" transform="translate(126.855469 0.015625)"/>
      <use xlink:href="#DejaVuSans-56" transform="translate(188.134766 0.015625)"/>
      <use xlink:href="#DejaVuSans-48" transform="translate(240.234375 0.015625)"/>
      <use xlink:href="#DejaVuSans-3" transform="translate(301.757812 0.015625)"/>
      <use xlink:href="#DejaVuSans-58" transform="translate(333.544922 0.015625)"/>
      <use xlink:href="#DejaVuSans-51" transform="translate(396.923828 0.015625)"/>
      <use xlink:href="#DejaVuSans-46" transform="translate(460.302734 0.015625)"/>
      <use xlink:href="#DejaVuSans-48" transform="translate(515.283203 0.015625)"/>
      <use xlink:href="#DejaVuSans-55" transform="translate(576.806641 0.015625)"/>
      <use xlink:href="#DejaVuSans-57" transform="translate(617.919922 0.015625)"/>
      <use xlink:href="#DejaVuSans-44" transform="translate(657.128906 0.015625)"/>
      <use xlink:href="#DejaVuSans-4c" transform="translate(718.408203 0.015625)"/>
      <use xlink:href="#DejaVuSans-51" transform="translate(746.191406 0.015625)"/>
      <use xlink:href="#DejaVuSans-57" transform="translate(809.570312 0.015625)"/>
      <use xlink:href="#DejaVuSans-5c" transform="translate(848.779297 0.015625)"/>
      <use xlink:href="#DejaVuSans-3" transform="translate(907.958984 0.015625)"/>
      <use xlink:href="#DejaVuSans-3" transform="translate(939.746094 0.015625)"/>
      <use xlink:href="#DejaVuSans-329" transform="translate(971.533203 0.015625)"/>
      <use xlink:href="#DejaVuSans-Oblique-35a" transform="translate(1039.941406 0.015625)"/>
     </g>
    </g>
   </g>
   <g id="line2d_80">
    <path d="M 38.016 65.087289 
L 278.858105 195.158458 
L 278.858105 195.158458 
" clip-path="url(#p2191acb7b0)" style="fill: none; stroke: #7a3fb0; stroke-width: 2.8; stroke-linecap: square"/>
   </g>
   <g id="line2d_81">
    <path d="M 38.016 65.087289 
L 278.858105 325.229627 
L 278.858105 325.229627 
" clip-path="url(#p2191acb7b0)" style="fill: none; stroke: #2e7d55; stroke-width: 2.8; stroke-linecap: square"/>
   </g>
   <g id="line2d_82">
    <path d="M 38.016 166.389373 
L 278.858105 166.389373 
L 278.858105 166.389373 
" clip-path="url(#p2191acb7b0)" style="fill: none; stroke-dasharray: 7.03,3.04; stroke-dashoffset: 0; stroke: #b3452f; stroke-width: 1.9"/>
   </g>
   <g id="patch_3">
    <path d="M 38.016 332.64 
L 38.016 52.92 
" style="fill: none; stroke: #444444; stroke-width: 1.5; stroke-linejoin: miter; stroke-linecap: square"/>
   </g>
   <g id="patch_4">
    <path d="M 38.016 332.64 
L 278.858105 332.64 
" style="fill: none; stroke: #444444; stroke-width: 1.5; stroke-linejoin: miter; stroke-linecap: square"/>
   </g>
   <g id="text_13">
    <!-- classical -->
    <g style="fill: #7a3fb0" transform="translate(102.994071 83.390543) scale(0.095 -0.095)">
     <defs>
      <path id="DejaVuSans-4f" d="M 603 4863 
L 1178 4863 
L 1178 0 
L 603 0 
L 603 4863 
z
" transform="scale(0.015625)"/>
     </defs>
     <use xlink:href="#DejaVuSans-46"/>
     <use xlink:href="#DejaVuSans-4f" transform="translate(54.984375 0)"/>
     <use xlink:href="#DejaVuSans-44" transform="translate(82.765625 0)"/>
     <use xlink:href="#DejaVuSans-56" transform="translate(144.046875 0)"/>
     <use xlink:href="#DejaVuSans-56" transform="translate(196.140625 0)"/>
     <use xlink:href="#DejaVuSans-4c" transform="translate(248.234375 0)"/>
     <use xlink:href="#DejaVuSans-46" transform="translate(276.015625 0)"/>
     <use xlink:href="#DejaVuSans-44" transform="translate(331 0)"/>
     <use xlink:href="#DejaVuSans-4f" transform="translate(392.28125 0)"/>
    </g>
   </g>
   <g id="text_14">
    <!-- ideal entanglement -->
    <g style="fill: #2e7d55" transform="translate(155.68197 205.544696) scale(0.095 -0.095)">
     <defs>
      <path id="DejaVuSans-47" d="M 2906 2969 
L 2906 4863 
L 3481 4863 
L 3481 0 
L 2906 0 
L 2906 525 
Q 2725 213 2448 61 
Q 2172 -91 1784 -91 
Q 1150 -91 751 415 
Q 353 922 353 1747 
Q 353 2572 751 3078 
Q 1150 3584 1784 3584 
Q 2172 3584 2448 3432 
Q 2725 3281 2906 2969 
z
M 947 1747 
Q 947 1113 1208 752 
Q 1469 391 1925 391 
Q 2381 391 2643 752 
Q 2906 1113 2906 1747 
Q 2906 2381 2643 2742 
Q 2381 3103 1925 3103 
Q 1469 3103 1208 2742 
Q 947 2381 947 1747 
z
" transform="scale(0.015625)"/>
      <path id="DejaVuSans-4a" d="M 2906 1791 
Q 2906 2416 2648 2759 
Q 2391 3103 1925 3103 
Q 1463 3103 1205 2759 
Q 947 2416 947 1791 
Q 947 1169 1205 825 
Q 1463 481 1925 481 
Q 2391 481 2648 825 
Q 2906 1169 2906 1791 
z
M 3481 434 
Q 3481 -459 3084 -895 
Q 2688 -1331 1869 -1331 
Q 1566 -1331 1297 -1286 
Q 1028 -1241 775 -1147 
L 775 -588 
Q 1028 -725 1275 -790 
Q 1522 -856 1778 -856 
Q 2344 -856 2625 -561 
Q 2906 -266 2906 331 
L 2906 616 
Q 2728 306 2450 153 
Q 2172 0 1784 0 
Q 1141 0 747 490 
Q 353 981 353 1791 
Q 353 2603 747 3093 
Q 1141 3584 1784 3584 
Q 2172 3584 2450 3431 
Q 2728 3278 2906 2969 
L 2906 3500 
L 3481 3500 
L 3481 434 
z
" transform="scale(0.015625)"/>
      <path id="DejaVuSans-50" d="M 3328 2828 
Q 3544 3216 3844 3400 
Q 4144 3584 4550 3584 
Q 5097 3584 5394 3201 
Q 5691 2819 5691 2113 
L 5691 0 
L 5113 0 
L 5113 2094 
Q 5113 2597 4934 2840 
Q 4756 3084 4391 3084 
Q 3944 3084 3684 2787 
Q 3425 2491 3425 1978 
L 3425 0 
L 2847 0 
L 2847 2094 
Q 2847 2600 2669 2842 
Q 2491 3084 2119 3084 
Q 1678 3084 1418 2786 
Q 1159 2488 1159 1978 
L 1159 0 
L 581 0 
L 581 3500 
L 1159 3500 
L 1159 2956 
Q 1356 3278 1631 3431 
Q 1906 3584 2284 3584 
Q 2666 3584 2933 3390 
Q 3200 3197 3328 2828 
z
" transform="scale(0.015625)"/>
     </defs>
     <use xlink:href="#DejaVuSans-4c"/>
     <use xlink:href="#DejaVuSans-47" transform="translate(27.78125 0)"/>
     <use xlink:href="#DejaVuSans-48" transform="translate(91.265625 0)"/>
     <use xlink:href="#DejaVuSans-44" transform="translate(152.796875 0)"/>
     <use xlink:href="#DejaVuSans-4f" transform="translate(214.078125 0)"/>
     <use xlink:href="#DejaVuSans-3" transform="translate(241.859375 0)"/>
     <use xlink:href="#DejaVuSans-48" transform="translate(273.640625 0)"/>
     <use xlink:href="#DejaVuSans-51" transform="translate(335.171875 0)"/>
     <use xlink:href="#DejaVuSans-57" transform="translate(398.546875 0)"/>
     <use xlink:href="#DejaVuSans-44" transform="translate(437.75 0)"/>
     <use xlink:href="#DejaVuSans-51" transform="translate(499.03125 0)"/>
     <use xlink:href="#DejaVuSans-4a" transform="translate(562.40625 0)"/>
     <use xlink:href="#DejaVuSans-4f" transform="translate(625.890625 0)"/>
     <use xlink:href="#DejaVuSans-48" transform="translate(653.671875 0)"/>
     <use xlink:href="#DejaVuSans-50" transform="translate(715.203125 0)"/>
     <use xlink:href="#DejaVuSans-48" transform="translate(812.609375 0)"/>
     <use xlink:href="#DejaVuSans-51" transform="translate(874.140625 0)"/>
     <use xlink:href="#DejaVuSans-57" transform="translate(937.515625 0)"/>
    </g>
   </g>
   <g id="text_15">
    <!-- loss -->
    <g style="fill: #b3452f" transform="translate(200.522404 160.72151) scale(0.095 -0.095)">
     <use xlink:href="#DejaVuSans-4f"/>
     <use xlink:href="#DejaVuSans-52" transform="translate(27.78125 0)"/>
     <use xlink:href="#DejaVuSans-56" transform="translate(88.96875 0)"/>
     <use xlink:href="#DejaVuSans-56" transform="translate(141.0625 0)"/>
    </g>
   </g>
   <g id="text_16">
    <!-- measurement scaling -->
    <g style="fill: #222222" transform="translate(96.325373 46.92) scale(0.115 -0.115)">
     <use xlink:href="#DejaVuSans-50"/>
     <use xlink:href="#DejaVuSans-48" transform="translate(97.40625 0)"/>
     <use xlink:href="#DejaVuSans-44" transform="translate(158.9375 0)"/>
     <use xlink:href="#DejaVuSans-56" transform="translate(220.21875 0)"/>
     <use xlink:href="#DejaVuSans-58" transform="translate(272.3125 0)"/>
     <use xlink:href="#DejaVuSans-55" transform="translate(335.6875 0)"/>
     <use xlink:href="#DejaVuSans-48" transform="translate(374.59375 0)"/>
     <use xlink:href="#DejaVuSans-50" transform="translate(436.125 0)"/>
     <use xlink:href="#DejaVuSans-48" transform="translate(533.53125 0)"/>
     <use xlink:href="#DejaVuSans-51" transform="translate(595.0625 0)"/>
     <use xlink:href="#DejaVuSans-57" transform="translate(658.4375 0)"/>
     <use xlink:href="#DejaVuSans-3" transform="translate(697.640625 0)"/>
     <use xlink:href="#DejaVuSans-56" transform="translate(729.421875 0)"/>
     <use xlink:href="#DejaVuSans-46" transform="translate(781.515625 0)"/>
     <use xlink:href="#DejaVuSans-44" transform="translate(836.5 0)"/>
     <use xlink:href="#DejaVuSans-4f" transform="translate(897.78125 0)"/>
     <use xlink:href="#DejaVuSans-4c" transform="translate(925.5625 0)"/>
     <use xlink:href="#DejaVuSans-51" transform="translate(953.34375 0)"/>
     <use xlink:href="#DejaVuSans-4a" transform="translate(1016.71875 0)"/>
    </g>
   </g>
   <g id="legend_1">
    <g id="line2d_83">
     <path d="M 174.050105 66.032 
L 182.850105 66.032 
L 191.650105 66.032 
" style="fill: none; stroke: #7a3fb0; stroke-width: 2.8; stroke-linecap: square"/>
    </g>
    <g id="text_17">
     <!-- SQL  $N^{-1/2}$ -->
     <g transform="translate(198.690105 69.112) scale(0.088 -0.088)">
      <defs>
       <path id="DejaVuSans-36" d="M 3425 4513 
L 3425 3897 
Q 3066 4069 2747 4153 
Q 2428 4238 2131 4238 
Q 1616 4238 1336 4038 
Q 1056 3838 1056 3469 
Q 1056 3159 1242 3001 
Q 1428 2844 1947 2747 
L 2328 2669 
Q 3034 2534 3370 2195 
Q 3706 1856 3706 1288 
Q 3706 609 3251 259 
Q 2797 -91 1919 -91 
Q 1588 -91 1214 -16 
Q 841 59 441 206 
L 441 856 
Q 825 641 1194 531 
Q 1563 422 1919 422 
Q 2459 422 2753 634 
Q 3047 847 3047 1241 
Q 3047 1584 2836 1778 
Q 2625 1972 2144 2069 
L 1759 2144 
Q 1053 2284 737 2584 
Q 422 2884 422 3419 
Q 422 4038 858 4394 
Q 1294 4750 2059 4750 
Q 2388 4750 2728 4690 
Q 3069 4631 3425 4513 
z
" transform="scale(0.015625)"/>
       <path id="DejaVuSans-34" d="M 2522 4238 
Q 1834 4238 1429 3725 
Q 1025 3213 1025 2328 
Q 1025 1447 1429 934 
Q 1834 422 2522 422 
Q 3209 422 3611 934 
Q 4013 1447 4013 2328 
Q 4013 3213 3611 3725 
Q 3209 4238 2522 4238 
z
M 3406 84 
L 4238 -825 
L 3475 -825 
L 2784 -78 
Q 2681 -84 2626 -87 
Q 2572 -91 2522 -91 
Q 1538 -91 948 567 
Q 359 1225 359 2328 
Q 359 3434 948 4092 
Q 1538 4750 2522 4750 
Q 3503 4750 4090 4092 
Q 4678 3434 4678 2328 
Q 4678 1516 4351 937 
Q 4025 359 3406 84 
z
" transform="scale(0.015625)"/>
       <path id="DejaVuSans-2f" d="M 628 4666 
L 1259 4666 
L 1259 531 
L 3531 531 
L 3531 0 
L 628 0 
L 628 4666 
z
" transform="scale(0.015625)"/>
       <path id="DejaVuSans-Oblique-31" d="M 1081 4666 
L 1931 4666 
L 3219 666 
L 4000 4666 
L 4616 4666 
L 3706 0 
L 2853 0 
L 1569 4025 
L 788 0 
L 172 0 
L 1081 4666 
z
" transform="scale(0.015625)"/>
       <path id="DejaVuSans-12" d="M 1625 4666 
L 2156 4666 
L 531 -594 
L 0 -594 
L 1625 4666 
z
" transform="scale(0.015625)"/>
      </defs>
      <use xlink:href="#DejaVuSans-36" transform="translate(0 0.746875)"/>
      <use xlink:href="#DejaVuSans-34" transform="translate(63.476562 0.746875)"/>
      <use xlink:href="#DejaVuSans-2f" transform="translate(142.1875 0.746875)"/>
      <use xlink:href="#DejaVuSans-3" transform="translate(197.900391 0.746875)"/>
      <use xlink:href="#DejaVuSans-3" transform="translate(229.6875 0.746875)"/>
      <use xlink:href="#DejaVuSans-Oblique-31" transform="translate(261.474609 0.746875)"/>
      <use xlink:href="#DejaVuSans-c9c" transform="translate(343.296068 42.046875) scale(0.7)"/>
      <use xlink:href="#DejaVuSans-14" transform="translate(401.948411 42.046875) scale(0.7)"/>
      <use xlink:href="#DejaVuSans-12" transform="translate(446.484544 42.046875) scale(0.7)"/>
      <use xlink:href="#DejaVuSans-15" transform="translate(470.068529 42.046875) scale(0.7)"/>
     </g>
    </g>
    <g id="line2d_84">
     <path d="M 174.050105 80.730062 
L 182.850105 80.730062 
L 191.650105 80.730062 
" style="fill: none; stroke: #2e7d55; stroke-width: 2.8; stroke-linecap: square"/>
    </g>
    <g id="text_18">
     <!-- Heisenberg  $N^{-1}$ -->
     <g transform="translate(198.690105 83.810062) scale(0.088 -0.088)">
      <defs>
       <path id="DejaVuSans-2b" d="M 628 4666 
L 1259 4666 
L 1259 2753 
L 3553 2753 
L 3553 4666 
L 4184 4666 
L 4184 0 
L 3553 0 
L 3553 2222 
L 1259 2222 
L 1259 0 
L 628 0 
L 628 4666 
z
" transform="scale(0.015625)"/>
       <path id="DejaVuSans-45" d="M 3116 1747 
Q 3116 2381 2855 2742 
Q 2594 3103 2138 3103 
Q 1681 3103 1420 2742 
Q 1159 2381 1159 1747 
Q 1159 1113 1420 752 
Q 1681 391 2138 391 
Q 2594 391 2855 752 
Q 3116 1113 3116 1747 
z
M 1159 2969 
Q 1341 3281 1617 3432 
Q 1894 3584 2278 3584 
Q 2916 3584 3314 3078 
Q 3713 2572 3713 1747 
Q 3713 922 3314 415 
Q 2916 -91 2278 -91 
Q 1894 -91 1617 61 
Q 1341 213 1159 525 
L 1159 0 
L 581 0 
L 581 4863 
L 1159 4863 
L 1159 2969 
z
" transform="scale(0.015625)"/>
      </defs>
      <use xlink:href="#DejaVuSans-2b" transform="translate(0 0.665625)"/>
      <use xlink:href="#DejaVuSans-48" transform="translate(75.195312 0.665625)"/>
      <use xlink:href="#DejaVuSans-4c" transform="translate(136.71875 0.665625)"/>
      <use xlink:href="#DejaVuSans-56" transform="translate(164.501953 0.665625)"/>
      <use xlink:href="#DejaVuSans-48" transform="translate(216.601562 0.665625)"/>
      <use xlink:href="#DejaVuSans-51" transform="translate(278.125 0.665625)"/>
      <use xlink:href="#DejaVuSans-45" transform="translate(341.503906 0.665625)"/>
      <use xlink:href="#DejaVuSans-48" transform="translate(404.980469 0.665625)"/>
      <use xlink:href="#DejaVuSans-55" transform="translate(466.503906 0.665625)"/>
      <use xlink:href="#DejaVuSans-4a" transform="translate(505.617188 0.665625)"/>
      <use xlink:href="#DejaVuSans-3" transform="translate(569.09375 0.665625)"/>
      <use xlink:href="#DejaVuSans-3" transform="translate(600.880859 0.665625)"/>
      <use xlink:href="#DejaVuSans-Oblique-31" transform="translate(632.667969 0.665625)"/>
      <use xlink:href="#DejaVuSans-c9c" transform="translate(714.489427 41.965625) scale(0.7)"/>
      <use xlink:href="#DejaVuSans-14" transform="translate(773.141771 41.965625) scale(0.7)"/>
     </g>
    </g>
    <g id="line2d_85">
     <path d="M 174.050105 93.93075 
L 182.850105 93.93075 
L 191.650105 93.93075 
" style="fill: none; stroke-dasharray: 7.03,3.04; stroke-dashoffset: 0; stroke: #b3452f; stroke-width: 1.9"/>
    </g>
    <g id="text_19">
     <!-- loss floor -->
     <g transform="translate(198.690105 97.01075) scale(0.088 -0.088)">
      <defs>
       <path id="DejaVuSans-13b0" d="M 1831 4863 
L 3431 4863 
L 3431 0 
L 2853 0 
L 2853 4384 
L 1825 4384 
Q 1516 4384 1395 4259 
Q 1275 4134 1275 3809 
L 1275 3500 
L 2222 3500 
L 2222 3053 
L 1275 3053 
L 1275 0 
L 697 0 
L 697 3053 
L 147 3053 
L 147 3500 
L 697 3500 
L 697 3744 
Q 697 4328 969 4595 
Q 1241 4863 1831 4863 
z
" transform="scale(0.015625)"/>
      </defs>
      <use xlink:href="#DejaVuSans-4f"/>
      <use xlink:href="#DejaVuSans-52" transform="translate(27.78125 0)"/>
      <use xlink:href="#DejaVuSans-56" transform="translate(88.96875 0)"/>
      <use xlink:href="#DejaVuSans-56" transform="translate(141.0625 0)"/>
      <use xlink:href="#DejaVuSans-3" transform="translate(193.15625 0)"/>
      <use xlink:href="#DejaVuSans-13b0" transform="translate(224.9375 0)"/>
      <use xlink:href="#DejaVuSans-52" transform="translate(287.921875 0)"/>
      <use xlink:href="#DejaVuSans-52" transform="translate(349.109375 0)"/>
      <use xlink:href="#DejaVuSans-55" transform="translate(410.296875 0)"/>
     </g>
    </g>
   </g>
  </g>
  <g id="axes_2">
   <g id="patch_5">
    <path d="M 453.781726 131.80104 
L 510.475958 131.80104 
Q 517.099116 131.80104 517.099116 124.80804 
L 517.099116 95.71716 
Q 517.099116 88.72416 510.475958 88.72416 
L 453.781726 88.72416 
Q 447.158568 88.72416 447.158568 95.71716 
L 447.158568 124.80804 
Q 447.158568 131.80104 453.781726 131.80104 
z
" clip-path="url(#p7a991b8f0e)" style="fill: #eadcf4; stroke: #7a3fb0; stroke-width: 1.7; stroke-linejoin: miter"/>
   </g>
   <g id="patch_6">
    <path d="M 363.706779 120.61224 
L 423.050274 120.61224 
Q 429.673432 120.61224 429.673432 113.61924 
L 429.673432 87.32556 
Q 429.673432 80.33256 423.050274 80.33256 
L 363.706779 80.33256 
Q 357.083621 80.33256 357.083621 87.32556 
L 357.083621 113.61924 
Q 357.083621 120.61224 363.706779 120.61224 
z
" clip-path="url(#p7a991b8f0e)" style="fill: #f4eee4; stroke: #7a3fb0; stroke-width: 1.7; stroke-linejoin: miter"/>
   </g>
   <g id="patch_7">
    <path d="M 448.489474 109.503716 
Q 438.416862 105.367854 430.205888 101.996389 
" clip-path="url(#p7a991b8f0e)" style="fill: none; stroke: #7a3fb0; stroke-width: 1.8; stroke-linecap: round"/>
    <path d="M 432.85239 105.028885 
L 430.205888 101.996389 
L 434.219786 101.698685 
z
" clip-path="url(#p7a991b8f0e)" style="fill: #7a3fb0; stroke: #7a3fb0; stroke-width: 1.8; stroke-linecap: round"/>
   </g>
   <g id="patch_8">
    <path d="M 363.706779 196.13664 
L 423.050274 196.13664 
Q 429.673432 196.13664 429.673432 189.14364 
L 429.673432 162.84996 
Q 429.673432 155.85696 423.050274 155.85696 
L 363.706779 155.85696 
Q 357.083621 155.85696 357.083621 162.84996 
L 357.083621 189.14364 
Q 357.083621 196.13664 363.706779 196.13664 
z
" clip-path="url(#p7a991b8f0e)" style="fill: #dcefe5; stroke: #7a3fb0; stroke-width: 1.7; stroke-linejoin: miter"/>
   </g>
   <g id="patch_9">
    <path d="M 449.655156 112.144274 
Q 438.416127 143.129351 427.863317 172.222577 
" clip-path="url(#p7a991b8f0e)" style="fill: none; stroke: #7a3fb0; stroke-width: 1.8; stroke-linecap: round"/>
    <path d="M 430.782988 169.452104 
L 427.863317 172.222577 
L 427.398741 168.224557 
z
" clip-path="url(#p7a991b8f0e)" style="fill: #7a3fb0; stroke: #7a3fb0; stroke-width: 1.8; stroke-linecap: round"/>
   </g>
   <g id="patch_10">
    <path d="M 363.706779 271.66104 
L 423.050274 271.66104 
Q 429.673432 271.66104 429.673432 264.66804 
L 429.673432 238.37436 
Q 429.673432 231.38136 423.050274 231.38136 
L 363.706779 231.38136 
Q 357.083621 231.38136 357.083621 238.37436 
L 357.083621 264.66804 
Q 357.083621 271.66104 363.706779 271.66104 
z
" clip-path="url(#p7a991b8f0e)" style="fill: #f4ddd7; stroke: #7a3fb0; stroke-width: 1.7; stroke-linejoin: miter"/>
   </g>
   <g id="patch_11">
    <path d="M 450.005152 112.232668 
Q 438.415834 180.892886 427.161465 247.568712 
" clip-path="url(#p7a991b8f0e)" style="fill: none; stroke: #7a3fb0; stroke-width: 1.8; stroke-linecap: round"/>
    <path d="M 429.535536 244.318514 
L 427.161465 247.568712 
L 425.985749 243.719337 
z
" clip-path="url(#p7a991b8f0e)" style="fill: #7a3fb0; stroke: #7a3fb0; stroke-width: 1.8; stroke-linecap: round"/>
   </g>
   <g id="patch_12">
    <path d="M 464.378779 224.10864 
L 518.423747 224.10864 
Q 525.046905 224.10864 525.046905 217.11564 
L 525.046905 188.02476 
Q 525.046905 181.03176 518.423747 181.03176 
L 464.378779 181.03176 
Q 457.755621 181.03176 457.755621 188.02476 
L 457.755621 217.11564 
Q 457.755621 224.10864 464.378779 224.10864 
z
" clip-path="url(#p7a991b8f0e)" style="fill: #eadcf4; stroke: #7a3fb0; stroke-width: 1.7; stroke-linejoin: miter"/>
   </g>
   <g id="patch_13">
    <path d="M 482.455392 130.414596 
Q 486.764797 156.414855 490.745136 180.429739 
" clip-path="url(#p7a991b8f0e)" style="fill: none; stroke: #7a3fb0; stroke-width: 1.8; stroke-linecap: round"/>
    <path d="M 492.064162 176.156547 
L 490.745136 180.429739 
L 488.117998 176.810603 
z
" clip-path="url(#p7a991b8f0e)" style="fill: #7a3fb0; stroke: #7a3fb0; stroke-width: 1.8; stroke-linecap: round"/>
   </g>
   <g id="patch_14">
    <path d="M 543.856674 224.10864 
L 597.901642 224.10864 
Q 604.5248 224.10864 604.5248 217.11564 
L 604.5248 188.02476 
Q 604.5248 181.03176 597.901642 181.03176 
L 543.856674 181.03176 
Q 537.233516 181.03176 537.233516 188.02476 
L 537.233516 217.11564 
Q 537.233516 224.10864 543.856674 224.10864 
z
" clip-path="url(#p7a991b8f0e)" style="fill: #dcefe5; stroke: #2e7d55; stroke-width: 1.7; stroke-linejoin: miter"/>
   </g>
   <g id="patch_15">
    <path d="M 523.864439 202.5702 
Q 531.138614 202.5702 536.400328 202.5702 
" clip-path="url(#p7a991b8f0e)" style="fill: none; stroke: #2e7d55; stroke-width: 1.8; stroke-linecap: round"/>
    <path d="M 532.400328 200.5702 
L 536.400328 202.5702 
L 532.400328 204.5702 
z
" clip-path="url(#p7a991b8f0e)" style="fill: #2e7d55; stroke: #2e7d55; stroke-width: 1.8; stroke-linecap: round"/>
   </g>
   <g id="text_20">
    <!-- optical quantum resources -->
    <g style="fill: #222222" transform="translate(395.295756 67.252603) scale(0.115 -0.115)">
     <defs>
      <path id="DejaVuSans-Bold-52" d="M 2203 2784 
Q 1831 2784 1636 2517 
Q 1441 2250 1441 1747 
Q 1441 1244 1636 976 
Q 1831 709 2203 709 
Q 2569 709 2762 976 
Q 2956 1244 2956 1747 
Q 2956 2250 2762 2517 
Q 2569 2784 2203 2784 
z
M 2203 3584 
Q 3106 3584 3614 3096 
Q 4122 2609 4122 1747 
Q 4122 884 3614 396 
Q 3106 -91 2203 -91 
Q 1297 -91 786 396 
Q 275 884 275 1747 
Q 275 2609 786 3096 
Q 1297 3584 2203 3584 
z
" transform="scale(0.015625)"/>
      <path id="DejaVuSans-Bold-53" d="M 1656 506 
L 1656 -1331 
L 538 -1331 
L 538 3500 
L 1656 3500 
L 1656 2988 
Q 1888 3294 2169 3439 
Q 2450 3584 2816 3584 
Q 3463 3584 3878 3070 
Q 4294 2556 4294 1747 
Q 4294 938 3878 423 
Q 3463 -91 2816 -91 
Q 2450 -91 2169 54 
Q 1888 200 1656 506 
z
M 2400 2772 
Q 2041 2772 1848 2508 
Q 1656 2244 1656 1747 
Q 1656 1250 1848 986 
Q 2041 722 2400 722 
Q 2759 722 2948 984 
Q 3138 1247 3138 1747 
Q 3138 2247 2948 2509 
Q 2759 2772 2400 2772 
z
" transform="scale(0.015625)"/>
      <path id="DejaVuSans-Bold-57" d="M 1759 4494 
L 1759 3500 
L 2913 3500 
L 2913 2700 
L 1759 2700 
L 1759 1216 
Q 1759 972 1856 886 
Q 1953 800 2241 800 
L 2816 800 
L 2816 0 
L 1856 0 
Q 1194 0 917 276 
Q 641 553 641 1216 
L 641 2700 
L 84 2700 
L 84 3500 
L 641 3500 
L 641 4494 
L 1759 4494 
z
" transform="scale(0.015625)"/>
      <path id="DejaVuSans-Bold-4c" d="M 538 3500 
L 1656 3500 
L 1656 0 
L 538 0 
L 538 3500 
z
M 538 4863 
L 1656 4863 
L 1656 3950 
L 538 3950 
L 538 4863 
z
" transform="scale(0.015625)"/>
      <path id="DejaVuSans-Bold-46" d="M 3366 3391 
L 3366 2478 
Q 3138 2634 2908 2709 
Q 2678 2784 2431 2784 
Q 1963 2784 1702 2511 
Q 1441 2238 1441 1747 
Q 1441 1256 1702 982 
Q 1963 709 2431 709 
Q 2694 709 2930 787 
Q 3166 866 3366 1019 
L 3366 103 
Q 3103 6 2833 -42 
Q 2563 -91 2291 -91 
Q 1344 -91 809 395 
Q 275 881 275 1747 
Q 275 2613 809 3098 
Q 1344 3584 2291 3584 
Q 2566 3584 2833 3536 
Q 3100 3488 3366 3391 
z
" transform="scale(0.015625)"/>
      <path id="DejaVuSans-Bold-44" d="M 2106 1575 
Q 1756 1575 1579 1456 
Q 1403 1338 1403 1106 
Q 1403 894 1545 773 
Q 1688 653 1941 653 
Q 2256 653 2472 879 
Q 2688 1106 2688 1447 
L 2688 1575 
L 2106 1575 
z
M 3816 1997 
L 3816 0 
L 2688 0 
L 2688 519 
Q 2463 200 2181 54 
Q 1900 -91 1497 -91 
Q 953 -91 614 226 
Q 275 544 275 1050 
Q 275 1666 698 1953 
Q 1122 2241 2028 2241 
L 2688 2241 
L 2688 2328 
Q 2688 2594 2478 2717 
Q 2269 2841 1825 2841 
Q 1466 2841 1156 2769 
Q 847 2697 581 2553 
L 581 3406 
Q 941 3494 1303 3539 
Q 1666 3584 2028 3584 
Q 2975 3584 3395 3211 
Q 3816 2838 3816 1997 
z
" transform="scale(0.015625)"/>
      <path id="DejaVuSans-Bold-4f" d="M 538 4863 
L 1656 4863 
L 1656 0 
L 538 0 
L 538 4863 
z
" transform="scale(0.015625)"/>
      <path id="DejaVuSans-Bold-3" transform="scale(0.015625)"/>
      <path id="DejaVuSans-Bold-54" d="M 2181 2772 
Q 1825 2772 1636 2509 
Q 1447 2247 1447 1747 
Q 1447 1247 1636 984 
Q 1825 722 2181 722 
Q 2541 722 2730 984 
Q 2919 1247 2919 1747 
Q 2919 2247 2730 2509 
Q 2541 2772 2181 2772 
z
M 2919 506 
Q 2688 197 2409 53 
Q 2131 -91 1766 -91 
Q 1119 -91 703 423 
Q 288 938 288 1747 
Q 288 2556 703 3067 
Q 1119 3578 1766 3578 
Q 2131 3578 2409 3434 
Q 2688 3291 2919 2981 
L 2919 3500 
L 4044 3500 
L 4044 -1331 
L 2919 -1331 
L 2919 506 
z
" transform="scale(0.015625)"/>
      <path id="DejaVuSans-Bold-58" d="M 500 1363 
L 500 3500 
L 1625 3500 
L 1625 3150 
Q 1625 2866 1622 2436 
Q 1619 2006 1619 1863 
Q 1619 1441 1641 1255 
Q 1663 1069 1716 984 
Q 1784 875 1895 815 
Q 2006 756 2150 756 
Q 2500 756 2700 1025 
Q 2900 1294 2900 1772 
L 2900 3500 
L 4019 3500 
L 4019 0 
L 2900 0 
L 2900 506 
Q 2647 200 2364 54 
Q 2081 -91 1741 -91 
Q 1134 -91 817 281 
Q 500 653 500 1363 
z
" transform="scale(0.015625)"/>
      <path id="DejaVuSans-Bold-51" d="M 4056 2131 
L 4056 0 
L 2931 0 
L 2931 347 
L 2931 1631 
Q 2931 2084 2911 2256 
Q 2891 2428 2841 2509 
Q 2775 2619 2662 2680 
Q 2550 2741 2406 2741 
Q 2056 2741 1856 2470 
Q 1656 2200 1656 1722 
L 1656 0 
L 538 0 
L 538 3500 
L 1656 3500 
L 1656 2988 
Q 1909 3294 2193 3439 
Q 2478 3584 2822 3584 
Q 3428 3584 3742 3212 
Q 4056 2841 4056 2131 
z
" transform="scale(0.015625)"/>
      <path id="DejaVuSans-Bold-50" d="M 3781 2919 
Q 3994 3244 4286 3414 
Q 4578 3584 4928 3584 
Q 5531 3584 5847 3212 
Q 6163 2841 6163 2131 
L 6163 0 
L 5038 0 
L 5038 1825 
Q 5041 1866 5042 1909 
Q 5044 1953 5044 2034 
Q 5044 2406 4934 2573 
Q 4825 2741 4581 2741 
Q 4263 2741 4089 2478 
Q 3916 2216 3909 1719 
L 3909 0 
L 2784 0 
L 2784 1825 
Q 2784 2406 2684 2573 
Q 2584 2741 2328 2741 
Q 2006 2741 1831 2477 
Q 1656 2213 1656 1722 
L 1656 0 
L 531 0 
L 531 3500 
L 1656 3500 
L 1656 2988 
Q 1863 3284 2130 3434 
Q 2397 3584 2719 3584 
Q 3081 3584 3359 3409 
Q 3638 3234 3781 2919 
z
" transform="scale(0.015625)"/>
      <path id="DejaVuSans-Bold-55" d="M 3138 2547 
Q 2991 2616 2845 2648 
Q 2700 2681 2553 2681 
Q 2122 2681 1889 2404 
Q 1656 2128 1656 1613 
L 1656 0 
L 538 0 
L 538 3500 
L 1656 3500 
L 1656 2925 
Q 1872 3269 2151 3426 
Q 2431 3584 2822 3584 
Q 2878 3584 2943 3579 
Q 3009 3575 3134 3559 
L 3138 2547 
z
" transform="scale(0.015625)"/>
      <path id="DejaVuSans-Bold-48" d="M 4031 1759 
L 4031 1441 
L 1416 1441 
Q 1456 1047 1700 850 
Q 1944 653 2381 653 
Q 2734 653 3104 758 
Q 3475 863 3866 1075 
L 3866 213 
Q 3469 63 3072 -14 
Q 2675 -91 2278 -91 
Q 1328 -91 801 392 
Q 275 875 275 1747 
Q 275 2603 792 3093 
Q 1309 3584 2216 3584 
Q 3041 3584 3536 3087 
Q 4031 2591 4031 1759 
z
M 2881 2131 
Q 2881 2450 2695 2645 
Q 2509 2841 2209 2841 
Q 1884 2841 1681 2658 
Q 1478 2475 1428 2131 
L 2881 2131 
z
" transform="scale(0.015625)"/>
      <path id="DejaVuSans-Bold-56" d="M 3272 3391 
L 3272 2541 
Q 2913 2691 2578 2766 
Q 2244 2841 1947 2841 
Q 1628 2841 1473 2761 
Q 1319 2681 1319 2516 
Q 1319 2381 1436 2309 
Q 1553 2238 1856 2203 
L 2053 2175 
Q 2913 2066 3209 1816 
Q 3506 1566 3506 1031 
Q 3506 472 3093 190 
Q 2681 -91 1863 -91 
Q 1516 -91 1145 -36 
Q 775 19 384 128 
L 384 978 
Q 719 816 1070 734 
Q 1422 653 1784 653 
Q 2113 653 2278 743 
Q 2444 834 2444 1013 
Q 2444 1163 2330 1236 
Q 2216 1309 1875 1350 
L 1678 1375 
Q 931 1469 631 1722 
Q 331 1975 331 2491 
Q 331 3047 712 3315 
Q 1094 3584 1881 3584 
Q 2191 3584 2531 3537 
Q 2872 3491 3272 3391 
z
" transform="scale(0.015625)"/>
     </defs>
     <use xlink:href="#DejaVuSans-Bold-52"/>
     <use xlink:href="#DejaVuSans-Bold-53" transform="translate(68.703125 0)"/>
     <use xlink:href="#DejaVuSans-Bold-57" transform="translate(140.28125 0)"/>
     <use xlink:href="#DejaVuSans-Bold-4c" transform="translate(188.078125 0)"/>
     <use xlink:href="#DejaVuSans-Bold-46" transform="translate(222.359375 0)"/>
     <use xlink:href="#DejaVuSans-Bold-44" transform="translate(281.640625 0)"/>
     <use xlink:href="#DejaVuSans-Bold-4f" transform="translate(349.125 0)"/>
     <use xlink:href="#DejaVuSans-Bold-3" transform="translate(383.40625 0)"/>
     <use xlink:href="#DejaVuSans-Bold-54" transform="translate(418.21875 0)"/>
     <use xlink:href="#DejaVuSans-Bold-58" transform="translate(489.796875 0)"/>
     <use xlink:href="#DejaVuSans-Bold-44" transform="translate(560.984375 0)"/>
     <use xlink:href="#DejaVuSans-Bold-51" transform="translate(628.46875 0)"/>
     <use xlink:href="#DejaVuSans-Bold-57" transform="translate(699.65625 0)"/>
     <use xlink:href="#DejaVuSans-Bold-58" transform="translate(747.453125 0)"/>
     <use xlink:href="#DejaVuSans-Bold-50" transform="translate(818.640625 0)"/>
     <use xlink:href="#DejaVuSans-Bold-3" transform="translate(922.84375 0)"/>
     <use xlink:href="#DejaVuSans-Bold-55" transform="translate(957.65625 0)"/>
     <use xlink:href="#DejaVuSans-Bold-48" transform="translate(1006.96875 0)"/>
     <use xlink:href="#DejaVuSans-Bold-56" transform="translate(1074.796875 0)"/>
     <use xlink:href="#DejaVuSans-Bold-52" transform="translate(1134.3125 0)"/>
     <use xlink:href="#DejaVuSans-Bold-58" transform="translate(1203.015625 0)"/>
     <use xlink:href="#DejaVuSans-Bold-55" transform="translate(1274.203125 0)"/>
     <use xlink:href="#DejaVuSans-Bold-46" transform="translate(1323.515625 0)"/>
     <use xlink:href="#DejaVuSans-Bold-48" transform="translate(1382.796875 0)"/>
     <use xlink:href="#DejaVuSans-Bold-56" transform="translate(1450.625 0)"/>
    </g>
   </g>
   <g id="text_21">
    <!-- source -->
    <g style="fill: #222222" transform="translate(465.524936 112.991506) scale(0.1 -0.1)">
     <use xlink:href="#DejaVuSans-56"/>
     <use xlink:href="#DejaVuSans-52" transform="translate(52.09375 0)"/>
     <use xlink:href="#DejaVuSans-58" transform="translate(113.28125 0)"/>
     <use xlink:href="#DejaVuSans-55" transform="translate(176.65625 0)"/>
     <use xlink:href="#DejaVuSans-46" transform="translate(215.5625 0)"/>
     <use xlink:href="#DejaVuSans-48" transform="translate(270.546875 0)"/>
    </g>
   </g>
   <g id="text_22">
    <!-- single photon -->
    <g style="fill: #222222" transform="translate(363.474339 102.90065) scale(0.088 -0.088)">
     <use xlink:href="#DejaVuSans-56"/>
     <use xlink:href="#DejaVuSans-4c" transform="translate(52.09375 0)"/>
     <use xlink:href="#DejaVuSans-51" transform="translate(79.875 0)"/>
     <use xlink:href="#DejaVuSans-4a" transform="translate(143.25 0)"/>
     <use xlink:href="#DejaVuSans-4f" transform="translate(206.734375 0)"/>
     <use xlink:href="#DejaVuSans-48" transform="translate(234.515625 0)"/>
     <use xlink:href="#DejaVuSans-3" transform="translate(296.046875 0)"/>
     <use xlink:href="#DejaVuSans-53" transform="translate(327.828125 0)"/>
     <use xlink:href="#DejaVuSans-4b" transform="translate(391.3125 0)"/>
     <use xlink:href="#DejaVuSans-52" transform="translate(454.6875 0)"/>
     <use xlink:href="#DejaVuSans-57" transform="translate(515.875 0)"/>
     <use xlink:href="#DejaVuSans-52" transform="translate(555.078125 0)"/>
     <use xlink:href="#DejaVuSans-51" transform="translate(616.265625 0)"/>
    </g>
   </g>
   <g id="text_23">
    <!-- squeezed state -->
    <g style="fill: #222222" transform="translate(359.735714 178.42505) scale(0.088 -0.088)">
     <defs>
      <path id="DejaVuSans-54" d="M 947 1747 
Q 947 1113 1208 752 
Q 1469 391 1925 391 
Q 2381 391 2643 752 
Q 2906 1113 2906 1747 
Q 2906 2381 2643 2742 
Q 2381 3103 1925 3103 
Q 1469 3103 1208 2742 
Q 947 2381 947 1747 
z
M 2906 525 
Q 2725 213 2448 61 
Q 2172 -91 1784 -91 
Q 1150 -91 751 415 
Q 353 922 353 1747 
Q 353 2572 751 3078 
Q 1150 3584 1784 3584 
Q 2172 3584 2448 3432 
Q 2725 3281 2906 2969 
L 2906 3500 
L 3481 3500 
L 3481 -1331 
L 2906 -1331 
L 2906 525 
z
" transform="scale(0.015625)"/>
      <path id="DejaVuSans-5d" d="M 353 3500 
L 3084 3500 
L 3084 2975 
L 922 459 
L 3084 459 
L 3084 0 
L 275 0 
L 275 525 
L 2438 3041 
L 353 3041 
L 353 3500 
z
" transform="scale(0.015625)"/>
     </defs>
     <use xlink:href="#DejaVuSans-56"/>
     <use xlink:href="#DejaVuSans-54" transform="translate(52.09375 0)"/>
     <use xlink:href="#DejaVuSans-58" transform="translate(115.578125 0)"/>
     <use xlink:href="#DejaVuSans-48" transform="translate(178.953125 0)"/>
     <use xlink:href="#DejaVuSans-48" transform="translate(240.484375 0)"/>
     <use xlink:href="#DejaVuSans-5d" transform="translate(302.015625 0)"/>
     <use xlink:href="#DejaVuSans-48" transform="translate(354.5 0)"/>
     <use xlink:href="#DejaVuSans-47" transform="translate(416.03125 0)"/>
     <use xlink:href="#DejaVuSans-3" transform="translate(479.515625 0)"/>
     <use xlink:href="#DejaVuSans-56" transform="translate(511.296875 0)"/>
     <use xlink:href="#DejaVuSans-57" transform="translate(563.390625 0)"/>
     <use xlink:href="#DejaVuSans-44" transform="translate(602.59375 0)"/>
     <use xlink:href="#DejaVuSans-57" transform="translate(663.875 0)"/>
     <use xlink:href="#DejaVuSans-48" transform="translate(703.078125 0)"/>
    </g>
   </g>
   <g id="text_24">
    <!-- entangled pair -->
    <g style="fill: #222222" transform="translate(361.237214 253.94945) scale(0.088 -0.088)">
     <use xlink:href="#DejaVuSans-48"/>
     <use xlink:href="#DejaVuSans-51" transform="translate(61.53125 0)"/>
     <use xlink:href="#DejaVuSans-57" transform="translate(124.90625 0)"/>
     <use xlink:href="#DejaVuSans-44" transform="translate(164.109375 0)"/>
     <use xlink:href="#DejaVuSans-51" transform="translate(225.390625 0)"/>
     <use xlink:href="#DejaVuSans-4a" transform="translate(288.765625 0)"/>
     <use xlink:href="#DejaVuSans-4f" transform="translate(352.25 0)"/>
     <use xlink:href="#DejaVuSans-48" transform="translate(380.03125 0)"/>
     <use xlink:href="#DejaVuSans-47" transform="translate(441.5625 0)"/>
     <use xlink:href="#DejaVuSans-3" transform="translate(505.046875 0)"/>
     <use xlink:href="#DejaVuSans-53" transform="translate(536.828125 0)"/>
     <use xlink:href="#DejaVuSans-44" transform="translate(600.3125 0)"/>
     <use xlink:href="#DejaVuSans-4c" transform="translate(661.59375 0)"/>
     <use xlink:href="#DejaVuSans-55" transform="translate(689.375 0)"/>
    </g>
   </g>
   <g id="text_25">
    <!-- interferometer -->
    <g style="fill: #222222" transform="translate(456.697318 206.111919) scale(0.095 -0.095)">
     <defs>
      <path id="DejaVuSans-49" d="M 2375 4863 
L 2375 4384 
L 1825 4384 
Q 1516 4384 1395 4259 
Q 1275 4134 1275 3809 
L 1275 3500 
L 2222 3500 
L 2222 3053 
L 1275 3053 
L 1275 0 
L 697 0 
L 697 3053 
L 147 3053 
L 147 3500 
L 697 3500 
L 697 3744 
Q 697 4328 969 4595 
Q 1241 4863 1831 4863 
L 2375 4863 
z
" transform="scale(0.015625)"/>
     </defs>
     <use xlink:href="#DejaVuSans-4c"/>
     <use xlink:href="#DejaVuSans-51" transform="translate(27.78125 0)"/>
     <use xlink:href="#DejaVuSans-57" transform="translate(91.15625 0)"/>
     <use xlink:href="#DejaVuSans-48" transform="translate(130.359375 0)"/>
     <use xlink:href="#DejaVuSans-55" transform="translate(191.890625 0)"/>
     <use xlink:href="#DejaVuSans-49" transform="translate(233 0)"/>
     <use xlink:href="#DejaVuSans-48" transform="translate(268.203125 0)"/>
     <use xlink:href="#DejaVuSans-55" transform="translate(329.734375 0)"/>
     <use xlink:href="#DejaVuSans-52" transform="translate(368.640625 0)"/>
     <use xlink:href="#DejaVuSans-50" transform="translate(429.828125 0)"/>
     <use xlink:href="#DejaVuSans-48" transform="translate(527.234375 0)"/>
     <use xlink:href="#DejaVuSans-57" transform="translate(588.765625 0)"/>
     <use xlink:href="#DejaVuSans-48" transform="translate(627.96875 0)"/>
     <use xlink:href="#DejaVuSans-55" transform="translate(689.5 0)"/>
    </g>
   </g>
   <g id="text_26">
    <!-- detector -->
    <g style="fill: #222222" transform="translate(550.823025 206.111919) scale(0.095 -0.095)">
     <use xlink:href="#DejaVuSans-47"/>
     <use xlink:href="#DejaVuSans-48" transform="translate(63.484375 0)"/>
     <use xlink:href="#DejaVuSans-57" transform="translate(125.015625 0)"/>
     <use xlink:href="#DejaVuSans-48" transform="translate(164.21875 0)"/>
     <use xlink:href="#DejaVuSans-46" transform="translate(225.75 0)"/>
     <use xlink:href="#DejaVuSans-57" transform="translate(280.734375 0)"/>
     <use xlink:href="#DejaVuSans-52" transform="translate(319.9375 0)"/>
     <use xlink:href="#DejaVuSans-55" transform="translate(381.125 0)"/>
    </g>
   </g>
   <g id="text_27">
    <!-- QKD  |  sensing  |  sampling -->
    <g style="fill: #222222" transform="translate(415.728342 284.805525) scale(0.096 -0.096)">
     <defs>
      <path id="DejaVuSans-2e" d="M 628 4666 
L 1259 4666 
L 1259 2694 
L 3353 4666 
L 4166 4666 
L 1850 2491 
L 4331 0 
L 3500 0 
L 1259 2247 
L 1259 0 
L 628 0 
L 628 4666 
z
" transform="scale(0.015625)"/>
      <path id="DejaVuSans-27" d="M 1259 4147 
L 1259 519 
L 2022 519 
Q 2988 519 3436 956 
Q 3884 1394 3884 2338 
Q 3884 3275 3436 3711 
Q 2988 4147 2022 4147 
L 1259 4147 
z
M 628 4666 
L 1925 4666 
Q 3281 4666 3915 4102 
Q 4550 3538 4550 2338 
Q 4550 1131 3912 565 
Q 3275 0 1925 0 
L 628 0 
L 628 4666 
z
" transform="scale(0.015625)"/>
      <path id="DejaVuSans-5f" d="M 1344 4891 
L 1344 -1509 
L 813 -1509 
L 813 4891 
L 1344 4891 
z
" transform="scale(0.015625)"/>
     </defs>
     <use xlink:href="#DejaVuSans-34"/>
     <use xlink:href="#DejaVuSans-2e" transform="translate(78.71875 0)"/>
     <use xlink:href="#DejaVuSans-27" transform="translate(144.296875 0)"/>
     <use xlink:href="#DejaVuSans-3" transform="translate(221.296875 0)"/>
     <use xlink:href="#DejaVuSans-3" transform="translate(253.078125 0)"/>
     <use xlink:href="#DejaVuSans-5f" transform="translate(284.859375 0)"/>
     <use xlink:href="#DejaVuSans-3" transform="translate(318.546875 0)"/>
     <use xlink:href="#DejaVuSans-3" transform="translate(350.328125 0)"/>
     <use xlink:href="#DejaVuSans-56" transform="translate(382.109375 0)"/>
     <use xlink:href="#DejaVuSans-48" transform="translate(434.203125 0)"/>
     <use xlink:href="#DejaVuSans-51" transform="translate(495.734375 0)"/>
     <use xlink:href="#DejaVuSans-56" transform="translate(559.109375 0)"/>
     <use xlink:href="#DejaVuSans-4c" transform="translate(611.203125 0)"/>
     <use xlink:href="#DejaVuSans-51" transform="translate(638.984375 0)"/>
     <use xlink:href="#DejaVuSans-4a" transform="translate(702.359375 0)"/>
     <use xlink:href="#DejaVuSans-3" transform="translate(765.84375 0)"/>
     <use xlink:href="#DejaVuSans-3" transform="translate(797.625 0)"/>
     <use xlink:href="#DejaVuSans-5f" transform="translate(829.40625 0)"/>
     <use xlink:href="#DejaVuSans-3" transform="translate(863.09375 0)"/>
     <use xlink:href="#DejaVuSans-3" transform="translate(894.875 0)"/>
     <use xlink:href="#DejaVuSans-56" transform="translate(926.65625 0)"/>
     <use xlink:href="#DejaVuSans-44" transform="translate(978.75 0)"/>
     <use xlink:href="#DejaVuSans-50" transform="translate(1040.03125 0)"/>
     <use xlink:href="#DejaVuSans-53" transform="translate(1137.4375 0)"/>
     <use xlink:href="#DejaVuSans-4f" transform="translate(1200.921875 0)"/>
     <use xlink:href="#DejaVuSans-4c" transform="translate(1228.703125 0)"/>
     <use xlink:href="#DejaVuSans-51" transform="translate(1256.484375 0)"/>
     <use xlink:href="#DejaVuSans-4a" transform="translate(1319.859375 0)"/>
    </g>
   </g>
   <g id="text_28">
    <!-- loss turns ideal gain into an engineering problem -->
    <g style="fill: #b3452f" transform="translate(373.925967 312.548681) scale(0.088 -0.088)">
     <use xlink:href="#DejaVuSans-4f"/>
     <use xlink:href="#DejaVuSans-52" transform="translate(27.78125 0)"/>
     <use xlink:href="#DejaVuSans-56" transform="translate(88.96875 0)"/>
     <use xlink:href="#DejaVuSans-56" transform="translate(141.0625 0)"/>
     <use xlink:href="#DejaVuSans-3" transform="translate(193.15625 0)"/>
     <use xlink:href="#DejaVuSans-57" transform="translate(224.9375 0)"/>
     <use xlink:href="#DejaVuSans-58" transform="translate(264.140625 0)"/>
     <use xlink:href="#DejaVuSans-55" transform="translate(327.515625 0)"/>
     <use xlink:href="#DejaVuSans-51" transform="translate(366.875 0)"/>
     <use xlink:href="#DejaVuSans-56" transform="translate(430.25 0)"/>
     <use xlink:href="#DejaVuSans-3" transform="translate(482.34375 0)"/>
     <use xlink:href="#DejaVuSans-4c" transform="translate(514.125 0)"/>
     <use xlink:href="#DejaVuSans-47" transform="translate(541.90625 0)"/>
     <use xlink:href="#DejaVuSans-48" transform="translate(605.390625 0)"/>
     <use xlink:href="#DejaVuSans-44" transform="translate(666.921875 0)"/>
     <use xlink:href="#DejaVuSans-4f" transform="translate(728.203125 0)"/>
     <use xlink:href="#DejaVuSans-3" transform="translate(755.984375 0)"/>
     <use xlink:href="#DejaVuSans-4a" transform="translate(787.765625 0)"/>
     <use xlink:href="#DejaVuSans-44" transform="translate(851.25 0)"/>
     <use xlink:href="#DejaVuSans-4c" transform="translate(912.53125 0)"/>
     <use xlink:href="#DejaVuSans-51" transform="translate(940.3125 0)"/>
     <use xlink:href="#DejaVuSans-3" transform="translate(1003.6875 0)"/>
     <use xlink:href="#DejaVuSans-4c" transform="translate(1035.46875 0)"/>
     <use xlink:href="#DejaVuSans-51" transform="translate(1063.25 0)"/>
     <use xlink:href="#DejaVuSans-57" transform="translate(1126.625 0)"/>
     <use xlink:href="#DejaVuSans-52" transform="translate(1165.828125 0)"/>
     <use xlink:href="#DejaVuSans-3" transform="translate(1227.015625 0)"/>
     <use xlink:href="#DejaVuSans-44" transform="translate(1258.796875 0)"/>
     <use xlink:href="#DejaVuSans-51" transform="translate(1320.078125 0)"/>
     <use xlink:href="#DejaVuSans-3" transform="translate(1383.453125 0)"/>
     <use xlink:href="#DejaVuSans-48" transform="translate(1415.234375 0)"/>
     <use xlink:href="#DejaVuSans-51" transform="translate(1476.765625 0)"/>
     <use xlink:href="#DejaVuSans-4a" transform="translate(1540.140625 0)"/>
     <use xlink:href="#DejaVuSans-4c" transform="translate(1603.625 0)"/>
     <use xlink:href="#DejaVuSans-51" transform="translate(1631.40625 0)"/>
     <use xlink:href="#DejaVuSans-48" transform="translate(1694.78125 0)"/>
     <use xlink:href="#DejaVuSans-48" transform="translate(1756.3125 0)"/>
     <use xlink:href="#DejaVuSans-55" transform="translate(1817.84375 0)"/>
     <use xlink:href="#DejaVuSans-4c" transform="translate(1858.953125 0)"/>
     <use xlink:href="#DejaVuSans-51" transform="translate(1886.734375 0)"/>
     <use xlink:href="#DejaVuSans-4a" transform="translate(1950.109375 0)"/>
     <use xlink:href="#DejaVuSans-3" transform="translate(2013.59375 0)"/>
     <use xlink:href="#DejaVuSans-53" transform="translate(2045.375 0)"/>
     <use xlink:href="#DejaVuSans-55" transform="translate(2108.859375 0)"/>
     <use xlink:href="#DejaVuSans-52" transform="translate(2147.765625 0)"/>
     <use xlink:href="#DejaVuSans-45" transform="translate(2208.953125 0)"/>
     <use xlink:href="#DejaVuSans-4f" transform="translate(2272.4375 0)"/>
     <use xlink:href="#DejaVuSans-48" transform="translate(2300.21875 0)"/>
     <use xlink:href="#DejaVuSans-50" transform="translate(2361.75 0)"/>
    </g>
   </g>
  </g>
  <g id="text_29">
   <!-- Quantum optics offers new resources, but loss remains decisive -->
   <g style="fill: #222222" transform="translate(72.981562 17.817891) scale(0.135 -0.135)">
    <defs>
     <path id="DejaVuSans-Bold-34" d="M 2847 -84 
L 2753 -84 
Q 1600 -84 959 553 
Q 319 1191 319 2328 
Q 319 3463 958 4106 
Q 1597 4750 2719 4750 
Q 3853 4750 4486 4112 
Q 5119 3475 5119 2328 
Q 5119 1541 4783 972 
Q 4447 403 3816 116 
L 4756 -934 
L 3609 -934 
L 2847 -84 
z
M 2719 3878 
Q 2169 3878 1866 3472 
Q 1563 3066 1563 2328 
Q 1563 1578 1859 1179 
Q 2156 781 2719 781 
Q 3272 781 3575 1187 
Q 3878 1594 3878 2328 
Q 3878 3066 3575 3472 
Q 3272 3878 2719 3878 
z
" transform="scale(0.015625)"/>
     <path id="DejaVuSans-Bold-13aa" d="M 2841 4863 
L 2841 4128 
L 2222 4128 
Q 1984 4128 1891 4044 
Q 1797 3956 1797 3744 
L 1797 3500 
L 3078 3500 
L 3078 3744 
Q 3078 4316 3397 4588 
Q 3716 4863 4384 4863 
L 5241 4863 
L 5241 4128 
L 4622 4128 
Q 4384 4128 4291 4044 
Q 4197 3956 4197 3744 
L 4197 3500 
L 5153 3500 
L 5153 2700 
L 4197 2700 
L 4197 0 
L 3078 0 
L 3078 2700 
L 1797 2700 
L 1797 0 
L 678 0 
L 678 2700 
L 122 2700 
L 122 3500 
L 678 3500 
L 678 3744 
Q 678 4316 997 4588 
Q 1316 4863 1984 4863 
L 2841 4863 
z
" transform="scale(0.015625)"/>
     <path id="DejaVuSans-Bold-5a" d="M 225 3500 
L 1313 3500 
L 1900 1088 
L 2491 3500 
L 3425 3500 
L 4013 1113 
L 4603 3500 
L 5691 3500 
L 4769 0 
L 3547 0 
L 2956 2406 
L 2369 0 
L 1147 0 
L 225 3500 
z
" transform="scale(0.015625)"/>
     <path id="DejaVuSans-Bold-f" d="M 653 1209 
L 1778 1209 
L 1778 256 
L 1006 -909 
L 341 -909 
L 653 256 
L 653 1209 
z
" transform="scale(0.015625)"/>
     <path id="DejaVuSans-Bold-45" d="M 2400 722 
Q 2759 722 2948 984 
Q 3138 1247 3138 1747 
Q 3138 2247 2948 2509 
Q 2759 2772 2400 2772 
Q 2041 2772 1848 2508 
Q 1656 2244 1656 1747 
Q 1656 1250 1848 986 
Q 2041 722 2400 722 
z
M 1656 2988 
Q 1888 3294 2169 3439 
Q 2450 3584 2816 3584 
Q 3463 3584 3878 3070 
Q 4294 2556 4294 1747 
Q 4294 938 3878 423 
Q 3463 -91 2816 -91 
Q 2450 -91 2169 54 
Q 1888 200 1656 506 
L 1656 0 
L 538 0 
L 538 4863 
L 1656 4863 
L 1656 2988 
z
" transform="scale(0.015625)"/>
     <path id="DejaVuSans-Bold-47" d="M 2919 2988 
L 2919 4863 
L 4044 4863 
L 4044 0 
L 2919 0 
L 2919 506 
Q 2688 197 2409 53 
Q 2131 -91 1766 -91 
Q 1119 -91 703 423 
Q 288 938 288 1747 
Q 288 2556 703 3070 
Q 1119 3584 1766 3584 
Q 2128 3584 2408 3439 
Q 2688 3294 2919 2988 
z
M 2181 722 
Q 2541 722 2730 984 
Q 2919 1247 2919 1747 
Q 2919 2247 2730 2509 
Q 2541 2772 2181 2772 
Q 1825 2772 1636 2509 
Q 1447 2247 1447 1747 
Q 1447 1247 1636 984 
Q 1825 722 2181 722 
z
" transform="scale(0.015625)"/>
     <path id="DejaVuSans-Bold-59" d="M 97 3500 
L 1216 3500 
L 2088 1081 
L 2956 3500 
L 4078 3500 
L 2700 0 
L 1472 0 
L 97 3500 
z
" transform="scale(0.015625)"/>
    </defs>
    <use xlink:href="#DejaVuSans-Bold-34"/>
    <use xlink:href="#DejaVuSans-Bold-58" transform="translate(85.015625 0)"/>
    <use xlink:href="#DejaVuSans-Bold-44" transform="translate(156.203125 0)"/>
    <use xlink:href="#DejaVuSans-Bold-51" transform="translate(223.6875 0)"/>
    <use xlink:href="#DejaVuSans-Bold-57" transform="translate(294.875 0)"/>
    <use xlink:href="#DejaVuSans-Bold-58" transform="translate(342.671875 0)"/>
    <use xlink:href="#DejaVuSans-Bold-50" transform="translate(413.859375 0)"/>
    <use xlink:href="#DejaVuSans-Bold-3" transform="translate(518.0625 0)"/>
    <use xlink:href="#DejaVuSans-Bold-52" transform="translate(552.875 0)"/>
    <use xlink:href="#DejaVuSans-Bold-53" transform="translate(621.578125 0)"/>
    <use xlink:href="#DejaVuSans-Bold-57" transform="translate(693.15625 0)"/>
    <use xlink:href="#DejaVuSans-Bold-4c" transform="translate(740.953125 0)"/>
    <use xlink:href="#DejaVuSans-Bold-46" transform="translate(775.234375 0)"/>
    <use xlink:href="#DejaVuSans-Bold-56" transform="translate(834.515625 0)"/>
    <use xlink:href="#DejaVuSans-Bold-3" transform="translate(894.03125 0)"/>
    <use xlink:href="#DejaVuSans-Bold-52" transform="translate(928.84375 0)"/>
    <use xlink:href="#DejaVuSans-Bold-13aa" transform="translate(997.546875 0)"/>
    <use xlink:href="#DejaVuSans-Bold-48" transform="translate(1078.546875 0)"/>
    <use xlink:href="#DejaVuSans-Bold-55" transform="translate(1146.375 0)"/>
    <use xlink:href="#DejaVuSans-Bold-56" transform="translate(1195.6875 0)"/>
    <use xlink:href="#DejaVuSans-Bold-3" transform="translate(1255.203125 0)"/>
    <use xlink:href="#DejaVuSans-Bold-51" transform="translate(1290.015625 0)"/>
    <use xlink:href="#DejaVuSans-Bold-48" transform="translate(1361.203125 0)"/>
    <use xlink:href="#DejaVuSans-Bold-5a" transform="translate(1429.03125 0)"/>
    <use xlink:href="#DejaVuSans-Bold-3" transform="translate(1521.421875 0)"/>
    <use xlink:href="#DejaVuSans-Bold-55" transform="translate(1556.234375 0)"/>
    <use xlink:href="#DejaVuSans-Bold-48" transform="translate(1605.546875 0)"/>
    <use xlink:href="#DejaVuSans-Bold-56" transform="translate(1673.375 0)"/>
    <use xlink:href="#DejaVuSans-Bold-52" transform="translate(1732.890625 0)"/>
    <use xlink:href="#DejaVuSans-Bold-58" transform="translate(1801.59375 0)"/>
    <use xlink:href="#DejaVuSans-Bold-55" transform="translate(1872.78125 0)"/>
    <use xlink:href="#DejaVuSans-Bold-46" transform="translate(1922.09375 0)"/>
    <use xlink:href="#DejaVuSans-Bold-48" transform="translate(1981.375 0)"/>
    <use xlink:href="#DejaVuSans-Bold-56" transform="translate(2049.203125 0)"/>
    <use xlink:href="#DejaVuSans-Bold-f" transform="translate(2108.71875 0)"/>
    <use xlink:href="#DejaVuSans-Bold-3" transform="translate(2146.703125 0)"/>
    <use xlink:href="#DejaVuSans-Bold-45" transform="translate(2181.515625 0)"/>
    <use xlink:href="#DejaVuSans-Bold-58" transform="translate(2253.09375 0)"/>
    <use xlink:href="#DejaVuSans-Bold-57" transform="translate(2324.28125 0)"/>
    <use xlink:href="#DejaVuSans-Bold-3" transform="translate(2372.078125 0)"/>
    <use xlink:href="#DejaVuSans-Bold-4f" transform="translate(2406.890625 0)"/>
    <use xlink:href="#DejaVuSans-Bold-52" transform="translate(2441.171875 0)"/>
    <use xlink:href="#DejaVuSans-Bold-56" transform="translate(2509.875 0)"/>
    <use xlink:href="#DejaVuSans-Bold-56" transform="translate(2569.390625 0)"/>
    <use xlink:href="#DejaVuSans-Bold-3" transform="translate(2628.90625 0)"/>
    <use xlink:href="#DejaVuSans-Bold-55" transform="translate(2663.71875 0)"/>
    <use xlink:href="#DejaVuSans-Bold-48" transform="translate(2713.03125 0)"/>
    <use xlink:href="#DejaVuSans-Bold-50" transform="translate(2780.859375 0)"/>
    <use xlink:href="#DejaVuSans-Bold-44" transform="translate(2885.0625 0)"/>
    <use xlink:href="#DejaVuSans-Bold-4c" transform="translate(2952.546875 0)"/>
    <use xlink:href="#DejaVuSans-Bold-51" transform="translate(2986.828125 0)"/>
    <use xlink:href="#DejaVuSans-Bold-56" transform="translate(3058.015625 0)"/>
    <use xlink:href="#DejaVuSans-Bold-3" transform="translate(3117.53125 0)"/>
    <use xlink:href="#DejaVuSans-Bold-47" transform="translate(3152.34375 0)"/>
    <use xlink:href="#DejaVuSans-Bold-48" transform="translate(3223.921875 0)"/>
    <use xlink:href="#DejaVuSans-Bold-46" transform="translate(3291.75 0)"/>
    <use xlink:href="#DejaVuSans-Bold-4c" transform="translate(3351.03125 0)"/>
    <use xlink:href="#DejaVuSans-Bold-56" transform="translate(3385.3125 0)"/>
    <use xlink:href="#DejaVuSans-Bold-4c" transform="translate(3444.828125 0)"/>
    <use xlink:href="#DejaVuSans-Bold-59" transform="translate(3479.109375 0)"/>
    <use xlink:href="#DejaVuSans-Bold-48" transform="translate(3544.296875 0)"/>
   </g>
  </g>
 </g>
 <defs>
  <clipPath id="p2191acb7b0">
   <rect x="38.016" y="52.92" width="240.842105" height="279.72"/>
  </clipPath>
  <clipPath id="p7a991b8f0e">
   <rect x="349.665684" y="52.92" width="264.926316" height="279.72"/>
  </clipPath>
 </defs>
</svg>
